%TF.GenerationSoftware,KiCad,Pcbnew,(5.99.0-10177-gd878cbddbc)*%
%TF.CreationDate,2021-05-19T16:56:41+02:00*%
%TF.ProjectId,PowerMeterDeng,506f7765-724d-4657-9465-7244656e672e,rev?*%
%TF.SameCoordinates,Original*%
%TF.FileFunction,Paste,Bot*%
%TF.FilePolarity,Positive*%
%FSLAX46Y46*%
G04 Gerber Fmt 4.6, Leading zero omitted, Abs format (unit mm)*
G04 Created by KiCad (PCBNEW (5.99.0-10177-gd878cbddbc)) date 2021-05-19 16:56:41*
%MOMM*%
%LPD*%
G01*
G04 APERTURE LIST*
%ADD10R,1.828800X1.295400*%
%ADD11R,0.990600X0.939800*%
%ADD12R,1.295400X1.828800*%
%ADD13R,0.914400X1.219200*%
%ADD14R,0.787400X0.584200*%
%ADD15R,2.692400X1.295400*%
%ADD16R,1.600200X1.270000*%
%ADD17R,1.295400X2.692400*%
%ADD18R,0.635000X1.092200*%
%ADD19R,1.397000X2.184400*%
%ADD20R,1.397000X0.889000*%
%ADD21R,2.184400X1.397000*%
%ADD22R,0.889000X1.397000*%
%ADD23R,0.939800X0.990600*%
%ADD24R,1.270000X1.600200*%
%ADD25R,0.381000X1.270000*%
%ADD26R,1.905000X1.524000*%
%ADD27C,0.990600*%
G04 APERTURE END LIST*
D10*
%TO.C,R67*%
X201101800Y-24841200D03*
X201101800Y-27736800D03*
%TD*%
%TO.C,R90*%
X230870600Y-25577800D03*
X230870600Y-28473400D03*
%TD*%
D11*
%TO.C,C150*%
X93380400Y-48006000D03*
X94955200Y-48006000D03*
%TD*%
D12*
%TO.C,FB9*%
X198485600Y-22402800D03*
X201381200Y-22402800D03*
%TD*%
D13*
%TO.C,D39*%
X123885800Y-60883800D03*
X127137000Y-60883800D03*
%TD*%
D14*
%TO.C,D19*%
X194091400Y-60934600D03*
X194091400Y-59664600D03*
X195666200Y-60299600D03*
%TD*%
D11*
%TO.C,C120*%
X144307400Y-38862000D03*
X145882200Y-38862000D03*
%TD*%
%TO.C,C125*%
X130388200Y-53441600D03*
X131963000Y-53441600D03*
%TD*%
%TO.C,R104*%
X103464200Y-37592000D03*
X101889400Y-37592000D03*
%TD*%
%TO.C,R101*%
X133019800Y-39878000D03*
X131445000Y-39878000D03*
%TD*%
D15*
%TO.C,C121*%
X141538800Y-46786800D03*
X141538800Y-43891200D03*
%TD*%
D13*
%TO.C,D45*%
X98612800Y-61010800D03*
X101864000Y-61010800D03*
%TD*%
D12*
%TO.C,FB11*%
X214055800Y-22783800D03*
X216951400Y-22783800D03*
%TD*%
D14*
%TO.C,D35*%
X142427800Y-58115200D03*
X142427800Y-56845200D03*
X144002600Y-57480200D03*
%TD*%
D11*
%TO.C,R52*%
X197012400Y-57124600D03*
X198587200Y-57124600D03*
%TD*%
D16*
%TO.C,C126*%
X130921600Y-37820600D03*
X130921600Y-35788600D03*
%TD*%
D11*
%TO.C,R103*%
X107416600Y-39878000D03*
X105841800Y-39878000D03*
%TD*%
%TO.C,C109*%
X156880400Y-52705000D03*
X158455200Y-52705000D03*
%TD*%
%TO.C,C118*%
X145069400Y-47498000D03*
X146644200Y-47498000D03*
%TD*%
D10*
%TO.C,R81*%
X216265600Y-35712400D03*
X216265600Y-38608000D03*
%TD*%
D15*
%TO.C,C116*%
X149158800Y-41986200D03*
X149158800Y-44881800D03*
%TD*%
D10*
%TO.C,R91*%
X230921400Y-30683200D03*
X230921400Y-33578800D03*
%TD*%
D17*
%TO.C,C73*%
X179715000Y-55397400D03*
X182610600Y-55397400D03*
%TD*%
D11*
%TO.C,C136*%
X117815200Y-39624000D03*
X119390000Y-39624000D03*
%TD*%
D10*
%TO.C,R68*%
X201076400Y-29845000D03*
X201076400Y-32740600D03*
%TD*%
D11*
%TO.C,C134*%
X118704200Y-47955200D03*
X120279000Y-47955200D03*
%TD*%
D18*
%TO.C,U16*%
X170672600Y-45288200D03*
X169732800Y-45288200D03*
X168793000Y-45288200D03*
X168793000Y-42900600D03*
X170672600Y-42900600D03*
%TD*%
D17*
%TO.C,C82*%
X172323600Y-50190400D03*
X169428000Y-50190400D03*
%TD*%
D19*
%TO.C,D44*%
X107848400Y-31038800D03*
D20*
X107848400Y-33578800D03*
%TD*%
D11*
%TO.C,C140*%
X107594400Y-45872400D03*
X106019600Y-45872400D03*
%TD*%
%TO.C,C80*%
X174787400Y-52730400D03*
X176362200Y-52730400D03*
%TD*%
%TO.C,C74*%
X182585200Y-44602400D03*
X181010400Y-44602400D03*
%TD*%
D17*
%TO.C,C131*%
X122361800Y-36550600D03*
X125257400Y-36550600D03*
%TD*%
D15*
%TO.C,C153*%
X89976800Y-47040800D03*
X89976800Y-44145200D03*
%TD*%
D21*
%TO.C,D46*%
X91592400Y-37388800D03*
D22*
X94132400Y-37388800D03*
%TD*%
D17*
%TO.C,C128*%
X124266800Y-55854600D03*
X127162400Y-55854600D03*
%TD*%
D11*
%TO.C,C141*%
X104937400Y-53213000D03*
X106512200Y-53213000D03*
%TD*%
%TO.C,C127*%
X128915000Y-39217600D03*
X127340200Y-39217600D03*
%TD*%
D23*
%TO.C,C122*%
X132953600Y-36017200D03*
X132953600Y-37592000D03*
%TD*%
D16*
%TO.C,C142*%
X105470800Y-37846000D03*
X105470800Y-35814000D03*
%TD*%
D15*
%TO.C,C81*%
X174558800Y-39344600D03*
X174558800Y-42240200D03*
%TD*%
D17*
%TO.C,C147*%
X97129600Y-36576000D03*
X100025200Y-36576000D03*
%TD*%
D11*
%TO.C,R95*%
X180807200Y-34315400D03*
X179232400Y-34315400D03*
%TD*%
%TO.C,C152*%
X92364400Y-39624000D03*
X93939200Y-39624000D03*
%TD*%
D17*
%TO.C,C149*%
X96377600Y-50673000D03*
X93482000Y-50673000D03*
%TD*%
D24*
%TO.C,C119*%
X145983800Y-40894000D03*
X143951800Y-40894000D03*
%TD*%
D13*
%TO.C,D21*%
X181493000Y-60934600D03*
X184744200Y-60934600D03*
%TD*%
D14*
%TO.C,D41*%
X116748400Y-57531000D03*
X116748400Y-56261000D03*
X118323200Y-56896000D03*
%TD*%
D23*
%TO.C,C114*%
X151825800Y-44602400D03*
X151825800Y-43027600D03*
%TD*%
D12*
%TO.C,FB12*%
X228813200Y-22758400D03*
X231708800Y-22758400D03*
%TD*%
D17*
%TO.C,C123*%
X129727800Y-55854600D03*
X132623400Y-55854600D03*
%TD*%
D23*
%TO.C,FB17*%
X153502200Y-35433000D03*
X154975400Y-35433000D03*
%TD*%
D16*
%TO.C,C72*%
X182940800Y-34188400D03*
X182940800Y-32156400D03*
%TD*%
D14*
%TO.C,D18*%
X208188400Y-57632600D03*
X208188400Y-56362600D03*
X209763200Y-56997600D03*
%TD*%
D10*
%TO.C,R80*%
X216240200Y-30632400D03*
X216240200Y-33528000D03*
%TD*%
D24*
%TO.C,C84*%
X170164600Y-40741600D03*
X168132600Y-40741600D03*
%TD*%
D17*
%TO.C,C139*%
X104277000Y-55880000D03*
X107172600Y-55880000D03*
%TD*%
D23*
%TO.C,C78*%
X177606800Y-42087800D03*
X177606800Y-40513000D03*
%TD*%
D19*
%TO.C,D31*%
X159816800Y-30530800D03*
D20*
X159816800Y-33070800D03*
%TD*%
D14*
%TO.C,D16*%
X222412400Y-60477400D03*
X222412400Y-59207400D03*
X223987200Y-59842400D03*
%TD*%
D11*
%TO.C,C145*%
X99476400Y-53213000D03*
X101051200Y-53213000D03*
%TD*%
%TO.C,FB20*%
X115199000Y-42494200D03*
X115199000Y-41021000D03*
%TD*%
D21*
%TO.C,D24*%
X168056400Y-36474400D03*
D22*
X170596400Y-36474400D03*
%TD*%
D23*
%TO.C,FB21*%
X101940200Y-35814000D03*
X103413400Y-35814000D03*
%TD*%
D11*
%TO.C,FB18*%
X141411800Y-42265600D03*
X141411800Y-40792400D03*
%TD*%
D17*
%TO.C,C144*%
X98689000Y-55880000D03*
X101584600Y-55880000D03*
%TD*%
D18*
%TO.C,U20*%
X145907600Y-45897800D03*
X144967800Y-45897800D03*
X144028000Y-45897800D03*
X144028000Y-43510200D03*
X145907600Y-43510200D03*
%TD*%
D10*
%TO.C,R79*%
X216265600Y-25527000D03*
X216265600Y-28422600D03*
%TD*%
D11*
%TO.C,R105*%
X87401400Y-38608000D03*
X88976200Y-38608000D03*
%TD*%
%TO.C,C107*%
X159217200Y-45593000D03*
X157642400Y-45593000D03*
%TD*%
D10*
%TO.C,R69*%
X201076400Y-34950400D03*
X201076400Y-37846000D03*
%TD*%
D23*
%TO.C,FB19*%
X127391000Y-35788600D03*
X128864200Y-35788600D03*
%TD*%
D15*
%TO.C,C137*%
X115300600Y-47015400D03*
X115300600Y-44119800D03*
%TD*%
D13*
%TO.C,D32*%
X155153200Y-60579000D03*
X158404400Y-60579000D03*
%TD*%
%TO.C,D23*%
X175270000Y-60985400D03*
X178521200Y-60985400D03*
%TD*%
D11*
%TO.C,C129*%
X124546200Y-53187600D03*
X126121000Y-53187600D03*
%TD*%
D12*
%TO.C,R70*%
X198587200Y-37566600D03*
X195691600Y-37566600D03*
%TD*%
D11*
%TO.C,FB22*%
X89849800Y-42519600D03*
X89849800Y-41046400D03*
%TD*%
D14*
%TO.C,D17*%
X208264600Y-60706000D03*
X208264600Y-59436000D03*
X209839400Y-60071000D03*
%TD*%
D11*
%TO.C,C113*%
X150657400Y-52959000D03*
X152232200Y-52959000D03*
%TD*%
D17*
%TO.C,C115*%
X148473000Y-36855400D03*
X151368600Y-36855400D03*
%TD*%
D11*
%TO.C,C83*%
X169707400Y-47396400D03*
X171282200Y-47396400D03*
%TD*%
D23*
%TO.C,FB13*%
X179283200Y-32283400D03*
X180756400Y-32283400D03*
%TD*%
D21*
%TO.C,D34*%
X143002000Y-36525200D03*
D22*
X145542000Y-36525200D03*
%TD*%
D25*
%TO.C,U21*%
X127711200Y-41224200D03*
X128371600Y-41224200D03*
X129006600Y-41224200D03*
X129641600Y-41224200D03*
X129641600Y-45110400D03*
X129006600Y-45110400D03*
X128371600Y-45110400D03*
X127711200Y-45110400D03*
D26*
X128676400Y-43180000D03*
%TD*%
D18*
%TO.C,U22*%
X119542400Y-46278800D03*
X118602600Y-46278800D03*
X117662800Y-46278800D03*
X117662800Y-43891200D03*
X119542400Y-43891200D03*
%TD*%
D27*
%TO.C,FID5*%
X84531200Y-126390400D03*
%TD*%
D11*
%TO.C,C75*%
X180883400Y-52730400D03*
X182458200Y-52730400D03*
%TD*%
D13*
%TO.C,D37*%
X129880200Y-60858400D03*
X133131400Y-60858400D03*
%TD*%
D24*
%TO.C,C151*%
X94167800Y-41783000D03*
X92135800Y-41783000D03*
%TD*%
D11*
%TO.C,C111*%
X154848400Y-38785800D03*
X153273600Y-38785800D03*
%TD*%
D25*
%TO.C,U19*%
X153781600Y-40970200D03*
X154442000Y-40970200D03*
X155077000Y-40970200D03*
X155712000Y-40970200D03*
X155712000Y-44856400D03*
X155077000Y-44856400D03*
X154442000Y-44856400D03*
X153781600Y-44856400D03*
D26*
X154746800Y-42926000D03*
%TD*%
D25*
%TO.C,U23*%
X102260400Y-41833800D03*
X102920800Y-41833800D03*
X103555800Y-41833800D03*
X104190800Y-41833800D03*
X104190800Y-45720000D03*
X103555800Y-45720000D03*
X102920800Y-45720000D03*
X102260400Y-45720000D03*
D26*
X103225600Y-43789600D03*
%TD*%
D17*
%TO.C,C79*%
X174127000Y-33553400D03*
X177022600Y-33553400D03*
%TD*%
D11*
%TO.C,R102*%
X128915000Y-37566600D03*
X127340200Y-37566600D03*
%TD*%
D16*
%TO.C,C110*%
X157439200Y-37566600D03*
X157439200Y-35534600D03*
%TD*%
D23*
%TO.C,C138*%
X107696000Y-36423600D03*
X107696000Y-37998400D03*
%TD*%
D15*
%TO.C,C132*%
X123428600Y-42849800D03*
X123428600Y-45745400D03*
%TD*%
D19*
%TO.C,D38*%
X132791200Y-30378400D03*
D20*
X132791200Y-32918400D03*
%TD*%
D24*
%TO.C,C135*%
X119618600Y-41783000D03*
X117586600Y-41783000D03*
%TD*%
D23*
%TO.C,R47*%
X145577400Y-57378600D03*
X145577400Y-55803800D03*
%TD*%
D27*
%TO.C,FID6*%
X80832800Y-33528000D03*
%TD*%
D13*
%TO.C,D33*%
X149184200Y-60579000D03*
X152435400Y-60579000D03*
%TD*%
D17*
%TO.C,C77*%
X174762000Y-55397400D03*
X177657600Y-55397400D03*
%TD*%
D11*
%TO.C,R44*%
X119771000Y-57073800D03*
X121345800Y-57073800D03*
%TD*%
D19*
%TO.C,D22*%
X183337200Y-26517600D03*
D20*
X183337200Y-29057600D03*
%TD*%
D14*
%TO.C,D47*%
X89189400Y-57912000D03*
X89189400Y-56642000D03*
X90764200Y-57277000D03*
%TD*%
D23*
%TO.C,C106*%
X159496600Y-35864800D03*
X159496600Y-37439600D03*
%TD*%
D17*
%TO.C,C112*%
X150124000Y-55626000D03*
X153019600Y-55626000D03*
%TD*%
%TO.C,C108*%
X155585000Y-55626000D03*
X158480600Y-55626000D03*
%TD*%
%TO.C,C133*%
X121574400Y-50520600D03*
X118678800Y-50520600D03*
%TD*%
D25*
%TO.C,U15*%
X179689600Y-38328600D03*
X180350000Y-38328600D03*
X180985000Y-38328600D03*
X181620000Y-38328600D03*
X181620000Y-42214800D03*
X180985000Y-42214800D03*
X180350000Y-42214800D03*
X179689600Y-42214800D03*
D26*
X180654800Y-40284400D03*
%TD*%
D11*
%TO.C,C143*%
X103464200Y-39243000D03*
X101889400Y-39243000D03*
%TD*%
%TO.C,R99*%
X159268000Y-39827200D03*
X157693200Y-39827200D03*
%TD*%
D23*
%TO.C,C71*%
X185099800Y-32385000D03*
X185099800Y-33959800D03*
%TD*%
D14*
%TO.C,D20*%
X193837400Y-57759600D03*
X193837400Y-56489600D03*
X195412200Y-57124600D03*
%TD*%
D11*
%TO.C,C85*%
X168361200Y-38582600D03*
X169936000Y-38582600D03*
%TD*%
%TO.C,C124*%
X133070600Y-46024800D03*
X131495800Y-46024800D03*
%TD*%
D13*
%TO.C,D43*%
X104581800Y-60960000D03*
X107833000Y-60960000D03*
%TD*%
D14*
%TO.C,D15*%
X222412400Y-57658000D03*
X222412400Y-56388000D03*
X223987200Y-57023000D03*
%TD*%
%TO.C,D36*%
X142402400Y-61163200D03*
X142402400Y-59893200D03*
X143977200Y-60528200D03*
%TD*%
%TO.C,D42*%
X116748400Y-60452000D03*
X116748400Y-59182000D03*
X118323200Y-59817000D03*
%TD*%
D17*
%TO.C,C117*%
X147431600Y-50292000D03*
X144536000Y-50292000D03*
%TD*%
D18*
%TO.C,U24*%
X94218600Y-46278800D03*
X93278800Y-46278800D03*
X92339000Y-46278800D03*
X92339000Y-43891200D03*
X94218600Y-43891200D03*
%TD*%
D11*
%TO.C,C76*%
X179232400Y-36220400D03*
X180807200Y-36220400D03*
%TD*%
D15*
%TO.C,C86*%
X166176800Y-47193200D03*
X166176800Y-44297600D03*
%TD*%
D23*
%TO.C,C146*%
X100390800Y-44475400D03*
X100390800Y-42900600D03*
%TD*%
D11*
%TO.C,R97*%
X211465000Y-57023000D03*
X213039800Y-57023000D03*
%TD*%
D10*
%TO.C,R92*%
X230921400Y-35712400D03*
X230921400Y-38608000D03*
%TD*%
D11*
%TO.C,R107*%
X226476400Y-57048400D03*
X228051200Y-57048400D03*
%TD*%
D15*
%TO.C,C148*%
X97977800Y-42875200D03*
X97977800Y-45770800D03*
%TD*%
D11*
%TO.C,R100*%
X154746800Y-37058600D03*
X153172000Y-37058600D03*
%TD*%
D12*
%TO.C,R93*%
X228422200Y-38201600D03*
X225526600Y-38201600D03*
%TD*%
D14*
%TO.C,D48*%
X89189400Y-60706000D03*
X89189400Y-59436000D03*
X90764200Y-60071000D03*
%TD*%
D21*
%TO.C,D40*%
X116890800Y-37338000D03*
D22*
X119430800Y-37338000D03*
%TD*%
D11*
%TO.C,R94*%
X184236200Y-36220400D03*
X182661400Y-36220400D03*
%TD*%
%TO.C,R39*%
X92339000Y-57251600D03*
X93913800Y-57251600D03*
%TD*%
%TO.C,FB14*%
X166227600Y-42240200D03*
X166227600Y-40767000D03*
%TD*%
D23*
%TO.C,C130*%
X125841600Y-44450000D03*
X125841600Y-42875200D03*
%TD*%
D12*
%TO.C,R82*%
X213624000Y-37998400D03*
X210728400Y-37998400D03*
%TD*%
M02*
