M48
; DRILL file {KiCad (5.99.0-10177-gd878cbddbc)} date Sun May 16 23:38:33 2021
; FORMAT={-:-/ absolute / inch / decimal}
; #@! TF.CreationDate,2021-05-16T23:38:33+02:00
; #@! TF.GenerationSoftware,Kicad,Pcbnew,(5.99.0-10177-gd878cbddbc)
; #@! TF.FileFunction,Plated,1,4,PTH
FMAT,2
INCH
; #@! TA.AperFunction,Plated,PTH,ViaDrill
T1C0.0157
; #@! TA.AperFunction,Plated,PTH,ViaDrill
T2C0.0160
; #@! TA.AperFunction,Plated,PTH,ViaDrill
T3C0.0200
; #@! TA.AperFunction,Plated,PTH,ComponentDrill
T4C0.0200
; #@! TA.AperFunction,Plated,PTH,ComponentDrill
T5C0.0320
; #@! TA.AperFunction,Plated,PTH,ComponentDrill
T6C0.0394
; #@! TA.AperFunction,Plated,PTH,ComponentDrill
T7C0.0400
; #@! TA.AperFunction,Plated,PTH,ComponentDrill
T8C0.0450
; #@! TA.AperFunction,Plated,PTH,ComponentDrill
T9C0.0490
; #@! TA.AperFunction,Plated,PTH,ComponentDrill
T10C0.0600
; #@! TA.AperFunction,Plated,PTH,ComponentDrill
T11C0.1200
; #@! TA.AperFunction,Plated,PTH,ComponentDrill
T12C0.1280
%
G90
G05
T1
X3.262Y-4.203
X3.288Y-3.81
X3.32Y-3.537
X3.396Y-4.528
X3.414Y-3.33
X3.418Y-3.868
X3.438Y-3.804
X3.496Y-3.218
X3.514Y-2.818
X3.514Y-4.528
X3.528Y-3.332
X3.536Y-3.868
X3.56Y-3.806
X3.71Y-3.336
X3.794Y-4.57
X3.85Y-4.118
X3.888Y-3.582
X4.106Y-4.114
X4.46Y-4.108
X4.5985Y-3.5772
X4.714Y-4.116
X4.788Y-4.568
X4.872Y-3.238
X4.89Y-3.928
X5.024Y-3.886
X5.0301Y-3.321
X5.038Y-4.544
X5.078Y-3.86
X5.138Y-3.882
X5.152Y-4.544
X5.1521Y-3.323
X5.196Y-3.856
X5.278Y-4.24
X5.2805Y-3.608
X5.576Y-3.262
X5.7695Y-3.5326
X5.7735Y-4.2176
X5.812Y-1.536
X5.8325Y-3.8916
X5.8805Y-3.8856
X5.8837Y-3.3249
X5.9085Y-4.5176
X5.9945Y-3.8836
X5.9995Y-3.3229
X6.0205Y-4.5186
X6.0835Y-3.9496
X6.1637Y-3.3189
X6.2677Y-4.4829
X6.293Y-3.9829
X6.323Y-3.5349
X6.557Y-3.9829
X6.925Y-3.9869
X7.074Y-2.374
X7.1337Y-4.5009
X7.179Y-3.5369
X7.201Y-3.9869
X7.4182Y-3.8519
X7.424Y-3.9489
X7.488Y-4.5439
X7.5597Y-3.3269
X7.605Y-4.5449
X7.6262Y-3.8819
X7.669Y-3.9129
X7.6727Y-3.3299
X7.748Y-4.2309
X7.7482Y-3.8839
X7.802Y-3.634
X7.904Y-3.238
X8.194Y-3.224
X8.324Y-4.288
X8.37Y-3.567
X8.441Y-4.618
X8.445Y-3.962
X8.488Y-3.909
X8.501Y-3.365
X8.555Y-4.62
X8.567Y-3.959
X8.607Y-3.909
X8.617Y-3.367
X8.689Y-3.381
X8.8639Y-4.082
X8.92Y-3.562
X8.929Y-4.564
X9.078Y-3.214
X9.124Y-4.078
X9.4887Y-4.08
X9.693Y-4.547
X9.732Y-3.568
X9.767Y-4.085
X9.9711Y-3.9452
X10.037Y-3.98
X10.047Y-4.634
X10.06Y-2.0405
X10.06Y-2.0905
X10.06Y-2.1385
X10.06Y-2.248
X10.062Y-2.32
X10.1107Y-3.9702
X10.12Y-2.04
X10.12Y-2.09
X10.12Y-2.138
X10.1321Y-3.4044
X10.148Y-2.63
X10.148Y-2.712
X10.15Y-2.832
X10.15Y-2.914
X10.15Y-3.032
X10.15Y-3.114
X10.154Y-3.983
X10.164Y-4.633
X10.18Y-2.041
X10.18Y-2.091
X10.18Y-2.139
X10.208Y-2.63
X10.208Y-2.712
X10.21Y-2.832
X10.21Y-2.914
X10.21Y-3.032
X10.21Y-3.114
X10.2247Y-3.9682
X10.238Y-2.0415
X10.238Y-2.0915
X10.238Y-2.1395
X10.248Y-2.324
X10.2481Y-3.4074
X10.25Y-2.242
X10.268Y-2.63
X10.268Y-2.712
X10.27Y-2.832
X10.27Y-2.914
X10.27Y-3.032
X10.27Y-3.114
X10.288Y-4.349
X10.296Y-2.042
X10.296Y-2.092
X10.296Y-2.14
X10.302Y-2.324
X10.304Y-2.242
X10.358Y-2.242
X10.358Y-2.324
X10.3721Y-3.7224
T2
X3.4414Y-1.465
X3.5124Y-1.57
X3.52Y-1.454
X3.5674Y-1.53
X3.5674Y-1.57
X3.6274Y-2.31
X3.6924Y-2.31
X3.7634Y-2.179
X3.7634Y-2.242
X3.7634Y-2.839
X3.7634Y-2.902
X4.0564Y-2.385
X4.0574Y-2.425
X4.2174Y-2.98
X4.3504Y-2.994
X4.452Y-2.772
X4.452Y-2.816
X4.5124Y-1.53
X4.5174Y-1.47
X4.5424Y-1.57
X4.5674Y-1.53
X4.5704Y-2.824
X4.6924Y-2.315
X4.7474Y-2.315
X4.8244Y-2.851
X4.8254Y-2.914
X5.0474Y-2.42
X5.0494Y-2.378
X5.1924Y-2.975
X5.3134Y-3.042
X5.4074Y-2.76
X5.4264Y-2.903
X5.5024Y-3.18
X5.5424Y-1.5
X5.5424Y-1.555
X5.5604Y-1.435
X5.5754Y-2.821
X5.5914Y-2.904
X5.5974Y-1.5
X5.5974Y-1.555
X5.6924Y-2.308
X5.7534Y-2.306
X5.8254Y-2.851
X5.8254Y-2.914
X5.8384Y-2.256
X5.8394Y-2.193
X6.062Y-2.41
X6.0624Y-2.365
X6.2284Y-2.99
X6.3424Y-3.003
X6.4484Y-3.06
X6.4614Y-2.887
X6.4754Y-2.705
X6.5154Y-1.55
X6.5174Y-1.441
X6.5174Y-1.495
X6.5174Y-1.936
X6.5674Y-1.55
X6.5674Y-1.936
X6.6074Y-2.887
X6.8254Y-0.941
X7.0024Y-2.054
X7.0304Y-2.093
X7.0524Y-2.054
X7.0614Y-0.94
X7.0724Y-2.427
X7.1124Y-1.586
X7.1874Y-1.556
X7.2174Y-1.486
X7.2224Y-1.531
X7.2474Y-1.756
X7.2674Y-1.496
X7.302Y-1.046
X7.4194Y-2.77
X7.4394Y-2.933
X7.4484Y-2.818
X7.5494Y-2.305
X7.5674Y-1.835
X7.6074Y-2.832
X7.6304Y-2.175
X7.6434Y-1.48
X7.6574Y-1.953
X7.7274Y-2.324
X7.7774Y-2.324
X7.8554Y-2.919
X7.8564Y-2.853
X7.8584Y-2.19
X7.8584Y-2.292
X8.1004Y-2.297
X8.1604Y-1.793
X8.1924Y-2.834
X8.1964Y-2.181
X8.2364Y-1.501
X8.2574Y-1.91
X8.3184Y-2.311
X8.3644Y-2.311
X8.4394Y-2.861
X8.4394Y-2.924
X8.4474Y-2.194
X8.4474Y-2.256
X8.6724Y-2.304
X8.7554Y-2.18
X8.7644Y-1.781
X8.7884Y-2.835
X8.8Y-1.508
X8.8474Y-1.913
X8.9064Y-2.325
X8.9584Y-2.32
X9.0364Y-2.197
X9.0364Y-2.259
X9.0364Y-2.857
X9.0374Y-2.927
T3
X3.1574Y-1.52
X3.4064Y-1.168
X3.4094Y-0.903
X3.4094Y-1.091
X3.4104Y-0.987
X3.4154Y-0.816
X3.4264Y-2.338
X3.4734Y-0.765
X3.4824Y-0.906
X3.5124Y-1.07
X3.5124Y-1.17
X3.5124Y-1.92
X3.5134Y-0.986
X3.5674Y-1.92
X4.0034Y-2.034
X4.0724Y-2.11
X4.0784Y-1.174
X4.0874Y-2.045
X4.1094Y-0.969
X4.1124Y-1.04
X4.1144Y-0.849
X4.1144Y-1.109
X4.1184Y-0.767
X4.1274Y-1.7
X4.1544Y-1.648
X4.1884Y-0.967
X4.1904Y-1.04
X4.1904Y-1.107
X4.1924Y-0.842
X4.2074Y-1.66
X4.2239Y-1.757
X4.2624Y-1.66
X4.2824Y-0.99
X4.2824Y-1.53
X4.2824Y-1.615
X4.31Y-1.238
X4.4304Y-0.985
X4.5074Y-1.93
X4.5124Y-2.28
X4.5144Y-1.097
X4.5154Y-0.87
X4.5154Y-0.976
X4.5524Y-0.792
X4.5554Y-1.041
X4.5574Y-1.178
X4.5624Y-1.93
X4.5874Y-0.872
X4.5884Y-0.975
X4.5894Y-1.098
X4.6424Y-1.175
X4.8304Y-2.179
X4.8304Y-2.242
X5.0064Y-2.033
X5.0604Y-1.694
X5.0624Y-2.115
X5.0784Y-2.031
X5.158Y-1.104
X5.1624Y-1.66
X5.2164Y-0.862
X5.2204Y-0.755
X5.2204Y-0.963
X5.2214Y-1.041
X5.2224Y-1.66
X5.2344Y-1.759
X5.2524Y-1.09
X5.2774Y-1.66
X5.2894Y-0.859
X5.29Y-1.536
X5.29Y-1.606
X5.2964Y-0.965
X5.3Y-1.106
X5.3024Y-1.043
X5.3774Y-1.015
X5.5194Y-2.294
X5.5354Y-1.913
X5.5774Y-0.995
X5.5974Y-1.915
X5.6494Y-0.954
X5.6534Y-0.864
X5.6544Y-1.039
X5.6574Y-1.181
X5.7064Y-1.114
X5.7114Y-0.77
X5.7474Y-0.949
X5.7494Y-0.868
X5.7544Y-1.04
X5.7684Y-1.182
X6.0384Y-2.029
X6.0774Y-2.1
X6.0924Y-1.69
X6.1124Y-2.028
X6.2004Y-1.668
X6.2634Y-1.674
X6.2704Y-1.846
X6.3194Y-1.659
X6.3274Y-1.551
X6.3294Y-1.607
X6.346Y-1.116
X6.3524Y-1.03
X6.3794Y-0.857
X6.3814Y-0.93
X6.3974Y-0.76
X6.4134Y-1.085
X6.438Y-1.128
X6.4604Y-1.022
X6.4654Y-0.929
X6.4674Y-0.856
X6.5374Y-0.915
T4
X7.9964Y-0.97
X8.5984Y-0.987
T5
X4.3724Y-2.45
X4.3724Y-2.65
X5.3574Y-2.45
X5.3574Y-2.65
X6.3824Y-2.45
X6.3824Y-2.65
X7.3994Y-2.455
X7.3994Y-2.655
T6
X3.912Y-4.687
X3.914Y-4.823
X3.93Y-3.49
X3.932Y-3.354
X4.012Y-4.687
X4.014Y-4.823
X4.03Y-3.49
X4.032Y-3.354
X4.522Y-3.36
X4.524Y-3.49
X4.574Y-4.672
X4.577Y-4.807
X4.622Y-3.36
X4.624Y-3.49
X4.674Y-4.672
X4.677Y-4.807
X6.3677Y-4.5849
X6.3695Y-4.7239
X6.419Y-3.3149
X6.423Y-3.4489
X6.4677Y-4.5849
X6.4695Y-4.7239
X6.519Y-3.3149
X6.523Y-3.4489
X6.954Y-3.3129
X6.957Y-3.4489
X7.0237Y-4.5949
X7.0247Y-4.7269
X7.054Y-3.3129
X7.057Y-3.4489
X7.1237Y-4.5949
X7.1247Y-4.7269
X8.924Y-4.772
X8.926Y-4.645
X8.99Y-3.345
X8.99Y-3.467
X9.024Y-4.772
X9.026Y-4.645
X9.09Y-3.345
X9.09Y-3.467
X9.516Y-3.358
X9.518Y-3.478
X9.601Y-4.63
X9.603Y-4.749
X9.616Y-3.358
X9.618Y-3.478
X9.701Y-4.63
X9.703Y-4.749
T7
X4.0724Y-1.315
X5.1114Y-1.312
X6.0164Y-3.001
X6.1644Y-1.313
X7.122Y-1.182
X8.68Y-2.856
T8
X3.6064Y-3.118
X3.6064Y-3.218
X3.7264Y-3.116
X3.7264Y-3.216
X4.6684Y-3.121
X4.6684Y-3.221
X4.7874Y-3.122
X4.7874Y-3.222
X4.9425Y-5.0876
X5.0803Y-5.0876
X5.2181Y-5.0876
X5.3559Y-5.0876
X5.4936Y-5.0876
X5.6314Y-5.0876
X5.6644Y-3.159
X5.6644Y-3.259
X5.7844Y-3.159
X5.7844Y-3.259
X7.7014Y-3.116
X7.7014Y-3.216
X7.8224Y-3.115
X7.8224Y-3.215
X7.8268Y-5.082
X7.9646Y-5.082
X8.1024Y-5.082
X8.2402Y-5.082
X8.2894Y-3.112
X8.2894Y-3.212
X8.378Y-5.082
X8.4094Y-3.111
X8.4094Y-3.211
X8.5158Y-5.082
X8.8734Y-3.109
X8.8734Y-3.209
X8.9934Y-3.11
X8.9934Y-3.21
T9
X7.5254Y-0.888
X7.7254Y-0.888
X8.1344Y-0.896
X8.3344Y-0.896
X8.7214Y-0.896
X8.9214Y-0.896
X10.488Y-2.712
X10.488Y-2.912
X10.488Y-3.112
X10.534Y-2.108
X10.534Y-2.308
T10
X4.3724Y-2.55
X5.3574Y-2.55
X6.3824Y-2.55
X7.3994Y-2.555
T11
X3.6274Y-0.835
X3.9524Y-0.835
X4.7324Y-0.84
X5.0604Y-0.84
X5.8924Y-0.84
X6.2224Y-0.84
T12
X3.2084Y-0.882
X3.415Y-5.157
X9.3084Y-0.887
T0
M30
