%TF.GenerationSoftware,KiCad,Pcbnew,(5.99.0-10177-gd878cbddbc)*%
%TF.CreationDate,2021-05-14T22:26:15+02:00*%
%TF.ProjectId,PowerMeterDeng,506f7765-724d-4657-9465-7244656e672e,rev?*%
%TF.SameCoordinates,Original*%
%TF.FileFunction,Paste,Top*%
%TF.FilePolarity,Positive*%
%FSLAX46Y46*%
G04 Gerber Fmt 4.6, Leading zero omitted, Abs format (unit mm)*
G04 Created by KiCad (PCBNEW (5.99.0-10177-gd878cbddbc)) date 2021-05-14 22:26:15*
%MOMM*%
%LPD*%
G01*
G04 APERTURE LIST*
G04 Aperture macros list*
%AMRoundRect*
0 Rectangle with rounded corners*
0 $1 Rounding radius*
0 $2 $3 $4 $5 $6 $7 $8 $9 X,Y pos of 4 corners*
0 Add a 4 corners polygon primitive as box body*
4,1,4,$2,$3,$4,$5,$6,$7,$8,$9,$2,$3,0*
0 Add four circle primitives for the rounded corners*
1,1,$1+$1,$2,$3*
1,1,$1+$1,$4,$5*
1,1,$1+$1,$6,$7*
1,1,$1+$1,$8,$9*
0 Add four rect primitives between the rounded corners*
20,1,$1+$1,$2,$3,$4,$5,0*
20,1,$1+$1,$4,$5,$6,$7,0*
20,1,$1+$1,$6,$7,$8,$9,0*
20,1,$1+$1,$8,$9,$2,$3,0*%
G04 Aperture macros list end*
%ADD10R,0.939800X0.990600*%
%ADD11O,2.200001X0.599999*%
%ADD12RoundRect,0.249900X-0.362600X-1.075100X0.362600X-1.075100X0.362600X1.075100X-0.362600X1.075100X0*%
%ADD13RoundRect,0.250000X0.400000X0.625000X-0.400000X0.625000X-0.400000X-0.625000X0.400000X-0.625000X0*%
%ADD14RoundRect,0.250000X-0.650000X0.325000X-0.650000X-0.325000X0.650000X-0.325000X0.650000X0.325000X0*%
%ADD15RoundRect,0.249550X-0.650450X0.325450X-0.650450X-0.325450X0.650450X-0.325450X0.650450X0.325450X0*%
%ADD16RoundRect,0.250000X-0.400000X-0.625000X0.400000X-0.625000X0.400000X0.625000X-0.400000X0.625000X0*%
%ADD17RoundRect,0.250000X0.650000X-0.325000X0.650000X0.325000X-0.650000X0.325000X-0.650000X-0.325000X0*%
%ADD18RoundRect,0.249550X0.650450X-0.325450X0.650450X0.325450X-0.650450X0.325450X-0.650450X-0.325450X0*%
%ADD19RoundRect,0.250000X0.625000X-0.400000X0.625000X0.400000X-0.625000X0.400000X-0.625000X-0.400000X0*%
%ADD20RoundRect,0.250000X0.325000X0.650000X-0.325000X0.650000X-0.325000X-0.650000X0.325000X-0.650000X0*%
%ADD21RoundRect,0.249550X0.325450X0.650450X-0.325450X0.650450X-0.325450X-0.650450X0.325450X-0.650450X0*%
%ADD22R,0.990600X0.939800*%
%ADD23R,2.692400X1.295400*%
%ADD24R,0.812800X0.812800*%
%ADD25RoundRect,0.250000X-0.325000X-0.650000X0.325000X-0.650000X0.325000X0.650000X-0.325000X0.650000X0*%
%ADD26RoundRect,0.249550X-0.325450X-0.650450X0.325450X-0.650450X0.325450X0.650450X-0.325450X0.650450X0*%
%ADD27RoundRect,0.249600X-0.625400X0.400400X-0.625400X-0.400400X0.625400X-0.400400X0.625400X0.400400X0*%
%ADD28RoundRect,0.250000X-0.625000X0.400000X-0.625000X-0.400000X0.625000X-0.400000X0.625000X0.400000X0*%
%ADD29R,0.863600X0.965200*%
%ADD30R,1.295400X1.828800*%
%ADD31R,0.635000X1.270000*%
%ADD32RoundRect,0.249600X0.625400X-0.400400X0.625400X0.400400X-0.625400X0.400400X-0.625400X-0.400400X0*%
%ADD33R,0.635000X1.092200*%
%ADD34R,0.600000X1.800000*%
%ADD35C,0.990600*%
%ADD36R,1.270000X1.600200*%
%ADD37R,1.600200X1.270000*%
%ADD38O,1.450000X0.599999*%
%ADD39R,1.574800X2.997200*%
G04 APERTURE END LIST*
D10*
%TO.C,R4*%
X93786800Y-49199800D03*
X93786800Y-50774600D03*
%TD*%
%TO.C,C43*%
X217459400Y-55727600D03*
X217459400Y-57302400D03*
%TD*%
D11*
%TO.C,U31*%
X148997199Y-88458400D03*
X148997199Y-89728400D03*
X148997199Y-90998400D03*
X148997199Y-92268400D03*
X153797199Y-92268400D03*
X153797199Y-90998400D03*
X153797199Y-89728400D03*
X153797199Y-88458400D03*
%TD*%
D12*
%TO.C,R22*%
X151459100Y-26416000D03*
X156084100Y-26416000D03*
%TD*%
D13*
%TO.C,R109*%
X181357200Y-98651200D03*
X178257200Y-98651200D03*
%TD*%
D11*
%TO.C,U29*%
X131228800Y-108991400D03*
X131228800Y-107721400D03*
X131228800Y-106451400D03*
X131228800Y-105181400D03*
X126428800Y-105181400D03*
X126428800Y-106451400D03*
X126428800Y-107721400D03*
X126428800Y-108991400D03*
%TD*%
D14*
%TO.C,C196*%
X188422999Y-93518600D03*
D15*
X188422999Y-96468600D03*
%TD*%
D14*
%TO.C,C24*%
X96367600Y-111783000D03*
D15*
X96367600Y-114733000D03*
%TD*%
D16*
%TO.C,R30*%
X99237200Y-100584000D03*
X102337200Y-100584000D03*
%TD*%
D17*
%TO.C,C210*%
X222478600Y-88876400D03*
D18*
X222478600Y-85926400D03*
%TD*%
D16*
%TO.C,R113*%
X178155600Y-105458400D03*
X181255600Y-105458400D03*
%TD*%
D19*
%TO.C,R50*%
X116179600Y-114732400D03*
X116179600Y-111632400D03*
%TD*%
D20*
%TO.C,C222*%
X257913400Y-105333800D03*
D21*
X254963400Y-105333800D03*
%TD*%
D22*
%TO.C,FB6*%
X155051600Y-35458400D03*
X155051600Y-36931600D03*
%TD*%
D21*
%TO.C,C186*%
X118111800Y-104495600D03*
D20*
X115161800Y-104495600D03*
%TD*%
%TO.C,C223*%
X257862600Y-102920800D03*
D21*
X254912600Y-102920800D03*
%TD*%
D14*
%TO.C,C22*%
X105003600Y-92911400D03*
X105003600Y-95861400D03*
%TD*%
D10*
%TO.C,C31*%
X98739800Y-55346600D03*
X98739800Y-56921400D03*
%TD*%
D16*
%TO.C,R112*%
X183609399Y-105433000D03*
X186709399Y-105433000D03*
%TD*%
%TO.C,R42*%
X115188400Y-100736400D03*
X118288400Y-100736400D03*
%TD*%
D20*
%TO.C,C215*%
X260252000Y-88504200D03*
D21*
X257302000Y-88504200D03*
%TD*%
D23*
%TO.C,C25*%
X161096800Y-74726800D03*
X161096800Y-71831200D03*
%TD*%
D24*
%TO.C,D2*%
X108772800Y-27990800D03*
X108772800Y-26365200D03*
%TD*%
D13*
%TO.C,R46*%
X123774800Y-108000800D03*
X120674800Y-108000800D03*
%TD*%
D24*
%TO.C,D6*%
X166049800Y-26212800D03*
X166049800Y-24587200D03*
%TD*%
D13*
%TO.C,R48*%
X118390000Y-107899200D03*
X115290000Y-107899200D03*
%TD*%
D25*
%TO.C,C213*%
X215745800Y-95224600D03*
D26*
X218695800Y-95224600D03*
%TD*%
D27*
%TO.C,R110*%
X179629400Y-91487800D03*
D28*
X179629400Y-94587800D03*
%TD*%
D25*
%TO.C,C204*%
X190194000Y-113434000D03*
D26*
X193144000Y-113434000D03*
%TD*%
D10*
%TO.C,C56*%
X151038400Y-72415400D03*
X151038400Y-73990200D03*
%TD*%
D29*
%TO.C,C52*%
X258914900Y-58928000D03*
X257314700Y-58928000D03*
%TD*%
D10*
%TO.C,C62*%
X217383200Y-72669400D03*
X217383200Y-74244200D03*
%TD*%
D20*
%TO.C,C202*%
X193144000Y-100454600D03*
D21*
X190194000Y-100454600D03*
%TD*%
D10*
%TO.C,C38*%
X151292400Y-55727600D03*
X151292400Y-57302400D03*
%TD*%
D30*
%TO.C,R72*%
X209890200Y-41808400D03*
X212785800Y-41808400D03*
%TD*%
D23*
%TO.C,C14*%
X134934800Y-75438000D03*
X134934800Y-72542400D03*
%TD*%
D10*
%TO.C,C5*%
X107121800Y-74193400D03*
X107121800Y-72618600D03*
%TD*%
%TO.C,R26*%
X146593400Y-49860200D03*
X146593400Y-51435000D03*
%TD*%
%TO.C,R57*%
X178140200Y-27584400D03*
X178140200Y-29159200D03*
%TD*%
D19*
%TO.C,R111*%
X176759200Y-94664000D03*
X176759200Y-91564000D03*
%TD*%
D10*
%TO.C,C8*%
X149539800Y-57302400D03*
X149539800Y-55727600D03*
%TD*%
D30*
%TO.C,R84*%
X225511200Y-44627800D03*
X228406800Y-44627800D03*
%TD*%
D28*
%TO.C,R131*%
X241858800Y-92201400D03*
X241858800Y-95301400D03*
%TD*%
D20*
%TO.C,C207*%
X164569000Y-101165800D03*
D21*
X161619000Y-101165800D03*
%TD*%
D16*
%TO.C,R129*%
X242340800Y-100558600D03*
X245440800Y-100558600D03*
%TD*%
D10*
%TO.C,C3*%
X124012800Y-56921400D03*
X124012800Y-55346600D03*
%TD*%
D28*
%TO.C,R36*%
X99060000Y-111937200D03*
D27*
X99060000Y-115037200D03*
%TD*%
D19*
%TO.C,R38*%
X121564400Y-96038000D03*
X121564400Y-92938000D03*
%TD*%
D29*
%TO.C,C53*%
X258914900Y-56946800D03*
X257314700Y-56946800D03*
%TD*%
D13*
%TO.C,R132*%
X224155600Y-108204000D03*
X221055600Y-108204000D03*
%TD*%
D25*
%TO.C,C212*%
X215644200Y-97586800D03*
D26*
X218594200Y-97586800D03*
%TD*%
D10*
%TO.C,C64*%
X215706800Y-74244200D03*
X215706800Y-72669400D03*
%TD*%
D25*
%TO.C,C216*%
X256794000Y-99197600D03*
D26*
X259744000Y-99197600D03*
%TD*%
D20*
%TO.C,C227*%
X229870000Y-103581200D03*
D21*
X226920000Y-103581200D03*
%TD*%
D31*
%TO.C,T2*%
X126806800Y-70104000D03*
X129346800Y-70104000D03*
X131886800Y-70104000D03*
X131886800Y-60985400D03*
X129346800Y-60985400D03*
X126806800Y-60985400D03*
%TD*%
D12*
%TO.C,R9*%
X122147500Y-26212800D03*
X126772500Y-26212800D03*
%TD*%
D32*
%TO.C,R122*%
X161664399Y-112545000D03*
D19*
X161664399Y-109445000D03*
%TD*%
D14*
%TO.C,C164*%
X248742200Y-110793000D03*
D15*
X248742200Y-113743000D03*
%TD*%
D14*
%TO.C,C48*%
X159175199Y-109672400D03*
D15*
X159175199Y-112622400D03*
%TD*%
D23*
%TO.C,C50*%
X186547600Y-74472800D03*
X186547600Y-71577200D03*
%TD*%
D17*
%TO.C,C35*%
X119227600Y-95963000D03*
D18*
X119227600Y-93013000D03*
%TD*%
D14*
%TO.C,C29*%
X104444800Y-111910600D03*
X104444800Y-114860600D03*
%TD*%
D10*
%TO.C,C19*%
X230819800Y-57302400D03*
X230819800Y-55727600D03*
%TD*%
D20*
%TO.C,C191*%
X152440399Y-86223200D03*
D21*
X149490399Y-86223200D03*
%TD*%
D31*
%TO.C,T1*%
X101914800Y-70231000D03*
X104454800Y-70231000D03*
X106994800Y-70231000D03*
X106994800Y-61112400D03*
X104454800Y-61112400D03*
X101914800Y-61112400D03*
%TD*%
D22*
%TO.C,FB5*%
X153019600Y-35458400D03*
X153019600Y-36931600D03*
%TD*%
D11*
%TO.C,U36*%
X215074800Y-89357200D03*
X215074800Y-90627200D03*
X215074800Y-91897200D03*
X215074800Y-93167200D03*
X219874800Y-93167200D03*
X219874800Y-91897200D03*
X219874800Y-90627200D03*
X219874800Y-89357200D03*
%TD*%
D14*
%TO.C,C41*%
X175685199Y-109672400D03*
X175685199Y-112622400D03*
%TD*%
D17*
%TO.C,C158*%
X226517200Y-94947000D03*
D18*
X226517200Y-91997000D03*
%TD*%
D33*
%TO.C,U4*%
X130286600Y-72085200D03*
X129346800Y-72085200D03*
X128407000Y-72085200D03*
X128407000Y-74472800D03*
X130286600Y-74472800D03*
%TD*%
D28*
%TO.C,R115*%
X178402999Y-109622800D03*
X178402999Y-112722800D03*
%TD*%
D33*
%TO.C,U10*%
X181391400Y-72339200D03*
X180451600Y-72339200D03*
X179511800Y-72339200D03*
X179511800Y-74726800D03*
X181391400Y-74726800D03*
%TD*%
D34*
%TO.C,U12*%
X213791800Y-60309700D03*
X212521800Y-60309700D03*
X211251800Y-60309700D03*
X209981800Y-60309700D03*
X209981800Y-70969700D03*
X211251800Y-70969700D03*
X212521800Y-70969700D03*
X213791800Y-70969700D03*
%TD*%
D20*
%TO.C,C183*%
X130508800Y-100482400D03*
D21*
X127558800Y-100482400D03*
%TD*%
D20*
%TO.C,C219*%
X217476600Y-102387400D03*
D21*
X214526600Y-102387400D03*
%TD*%
D35*
%TO.C,FID1*%
X80832800Y-33528000D03*
%TD*%
D10*
%TO.C,R12*%
X118932800Y-73634600D03*
X118932800Y-75209400D03*
%TD*%
D35*
%TO.C,FID2*%
X83007200Y-128727200D03*
%TD*%
D20*
%TO.C,C194*%
X194940199Y-86281400D03*
D21*
X191990199Y-86281400D03*
%TD*%
D10*
%TO.C,R3*%
X92135800Y-74015600D03*
X92135800Y-75590400D03*
%TD*%
D33*
%TO.C,U2*%
X105394600Y-72212200D03*
X104454800Y-72212200D03*
X103515000Y-72212200D03*
X103515000Y-74599800D03*
X105394600Y-74599800D03*
%TD*%
D11*
%TO.C,U33*%
X195992199Y-94790400D03*
X195992199Y-93520400D03*
X195992199Y-92250400D03*
X195992199Y-90980400D03*
X191192199Y-90980400D03*
X191192199Y-92250400D03*
X191192199Y-93520400D03*
X191192199Y-94790400D03*
%TD*%
D17*
%TO.C,C37*%
X113284000Y-114505000D03*
X113284000Y-111555000D03*
%TD*%
D10*
%TO.C,C70*%
X230845200Y-74218800D03*
X230845200Y-72644000D03*
%TD*%
D11*
%TO.C,U28*%
X131686000Y-94208600D03*
X131686000Y-92938600D03*
X131686000Y-91668600D03*
X131686000Y-90398600D03*
X126886000Y-90398600D03*
X126886000Y-91668600D03*
X126886000Y-92938600D03*
X126886000Y-94208600D03*
%TD*%
D25*
%TO.C,C197*%
X193735598Y-96898600D03*
D26*
X196685598Y-96898600D03*
%TD*%
D36*
%TO.C,C2*%
X93913800Y-55575200D03*
X91881800Y-55575200D03*
%TD*%
D10*
%TO.C,R86*%
X225917600Y-48615600D03*
X225917600Y-50190400D03*
%TD*%
D24*
%TO.C,D11*%
X178191000Y-25501600D03*
X178191000Y-23876000D03*
%TD*%
D19*
%TO.C,R118*%
X163195600Y-94537000D03*
D32*
X163195600Y-91437000D03*
%TD*%
D36*
%TO.C,C61*%
X213039800Y-54076600D03*
X211007800Y-54076600D03*
%TD*%
D11*
%TO.C,U37*%
X261075400Y-97089400D03*
X261075400Y-95819400D03*
X261075400Y-94549400D03*
X261075400Y-93279400D03*
X256275400Y-93279400D03*
X256275400Y-94549400D03*
X256275400Y-95819400D03*
X256275400Y-97089400D03*
%TD*%
D10*
%TO.C,C54*%
X125460600Y-72415400D03*
X125460600Y-73990200D03*
%TD*%
D16*
%TO.C,R125*%
X227761200Y-100558600D03*
X230861200Y-100558600D03*
%TD*%
D36*
%TO.C,C9*%
X120863200Y-55880000D03*
X118831200Y-55880000D03*
%TD*%
D10*
%TO.C,R7*%
X112455800Y-35026600D03*
X112455800Y-36601400D03*
%TD*%
D23*
%TO.C,C6*%
X110550800Y-74345800D03*
X110550800Y-71450200D03*
%TD*%
D25*
%TO.C,C225*%
X255141200Y-113614200D03*
D26*
X258091200Y-113614200D03*
%TD*%
D21*
%TO.C,C206*%
X181180600Y-101267400D03*
D20*
X178230600Y-101267400D03*
%TD*%
D27*
%TO.C,R126*%
X228879400Y-92049000D03*
D28*
X228879400Y-95149000D03*
%TD*%
D25*
%TO.C,C200*%
X149972999Y-112842400D03*
D26*
X152922999Y-112842400D03*
%TD*%
D19*
%TO.C,R139*%
X243840000Y-113919600D03*
X243840000Y-110819600D03*
%TD*%
D25*
%TO.C,C172*%
X87374200Y-94843600D03*
D26*
X90324200Y-94843600D03*
%TD*%
D34*
%TO.C,U3*%
X121539000Y-60411300D03*
X120269000Y-60411300D03*
X118999000Y-60411300D03*
X117729000Y-60411300D03*
X117729000Y-71071300D03*
X118999000Y-71071300D03*
X120269000Y-71071300D03*
X121539000Y-71071300D03*
%TD*%
D10*
%TO.C,C11*%
X200847800Y-57302400D03*
X200847800Y-55727600D03*
%TD*%
%TO.C,R5*%
X94040800Y-74015600D03*
X94040800Y-75590400D03*
%TD*%
D11*
%TO.C,U38*%
X213703200Y-107111800D03*
X213703200Y-108381800D03*
X213703200Y-109651800D03*
X213703200Y-110921800D03*
X218503200Y-110921800D03*
X218503200Y-109651800D03*
X218503200Y-108381800D03*
X218503200Y-107111800D03*
%TD*%
D19*
%TO.C,R116*%
X158115600Y-94283000D03*
X158115600Y-91183000D03*
%TD*%
D10*
%TO.C,C45*%
X98587400Y-72110600D03*
X98587400Y-73685400D03*
%TD*%
D25*
%TO.C,C220*%
X214323400Y-115671600D03*
D26*
X217273400Y-115671600D03*
%TD*%
D14*
%TO.C,C156*%
X183863999Y-109621600D03*
D15*
X183863999Y-112571600D03*
%TD*%
D11*
%TO.C,U26*%
X86500000Y-88569800D03*
X86500000Y-89839800D03*
X86500000Y-91109800D03*
X86500000Y-92379800D03*
X91300000Y-92379800D03*
X91300000Y-91109800D03*
X91300000Y-89839800D03*
X91300000Y-88569800D03*
%TD*%
D17*
%TO.C,C170*%
X94234000Y-89105000D03*
D18*
X94234000Y-86155000D03*
%TD*%
D28*
%TO.C,R114*%
X181146199Y-109546600D03*
D27*
X181146199Y-112646600D03*
%TD*%
D10*
%TO.C,R77*%
X212912800Y-48463200D03*
X212912800Y-50038000D03*
%TD*%
%TO.C,R55*%
X172018800Y-28676600D03*
X172018800Y-30251400D03*
%TD*%
D17*
%TO.C,C40*%
X160706400Y-94411200D03*
D18*
X160706400Y-91461200D03*
%TD*%
D10*
%TO.C,C13*%
X131886800Y-74066400D03*
X131886800Y-72491600D03*
%TD*%
D20*
%TO.C,C214*%
X260328200Y-91120400D03*
D21*
X257378200Y-91120400D03*
%TD*%
D25*
%TO.C,C224*%
X255166600Y-116001800D03*
D26*
X258116600Y-116001800D03*
%TD*%
D37*
%TO.C,R59*%
X192211800Y-42849800D03*
X192211800Y-44881800D03*
%TD*%
D24*
%TO.C,D1*%
X81671000Y-38608000D03*
X83296600Y-38608000D03*
%TD*%
D11*
%TO.C,U32*%
X149225799Y-104993800D03*
X149225799Y-106263800D03*
X149225799Y-107533800D03*
X149225799Y-108803800D03*
X154025799Y-108803800D03*
X154025799Y-107533800D03*
X154025799Y-106263800D03*
X154025799Y-104993800D03*
%TD*%
D10*
%TO.C,C1*%
X96961800Y-56921400D03*
X96961800Y-55346600D03*
%TD*%
%TO.C,R65*%
X197672800Y-49606200D03*
X197672800Y-51181000D03*
%TD*%
D11*
%TO.C,U39*%
X258699000Y-111633000D03*
X258699000Y-110363000D03*
X258699000Y-109093000D03*
X258699000Y-107823000D03*
X253899000Y-107823000D03*
X253899000Y-109093000D03*
X253899000Y-110363000D03*
X253899000Y-111633000D03*
%TD*%
D20*
%TO.C,C211*%
X218822800Y-87249000D03*
D21*
X215872800Y-87249000D03*
%TD*%
D22*
%TO.C,FB4*%
X125333600Y-33934400D03*
X125333600Y-35407600D03*
%TD*%
D20*
%TO.C,C171*%
X89613000Y-86309200D03*
D21*
X86663000Y-86309200D03*
%TD*%
D22*
%TO.C,FB2*%
X96885600Y-33680400D03*
X96885600Y-35153600D03*
%TD*%
D10*
%TO.C,R23*%
X144459800Y-73507600D03*
X144459800Y-75082400D03*
%TD*%
D17*
%TO.C,C155*%
X168224800Y-94462000D03*
X168224800Y-91512000D03*
%TD*%
D24*
%TO.C,D4*%
X136585800Y-28625800D03*
X136585800Y-27000200D03*
%TD*%
D10*
%TO.C,R15*%
X120964800Y-73634600D03*
X120964800Y-75209400D03*
%TD*%
D25*
%TO.C,C184*%
X127912600Y-113385600D03*
D26*
X130862600Y-113385600D03*
%TD*%
D25*
%TO.C,C180*%
X86205800Y-110591600D03*
D26*
X89155800Y-110591600D03*
%TD*%
D28*
%TO.C,R123*%
X164280599Y-109495800D03*
X164280599Y-112595800D03*
%TD*%
D10*
%TO.C,R74*%
X211007800Y-48463200D03*
X211007800Y-50038000D03*
%TD*%
D20*
%TO.C,C199*%
X152948399Y-100498000D03*
D21*
X149998399Y-100498000D03*
%TD*%
D36*
%TO.C,C55*%
X197799800Y-55092600D03*
X195767800Y-55092600D03*
%TD*%
D25*
%TO.C,C205*%
X190143200Y-110665400D03*
D26*
X193093200Y-110665400D03*
%TD*%
D30*
%TO.C,R85*%
X225511200Y-41402000D03*
X228406800Y-41402000D03*
%TD*%
D14*
%TO.C,C177*%
X124206000Y-95400600D03*
D15*
X124206000Y-98350600D03*
%TD*%
D37*
%TO.C,R83*%
X222615600Y-41478200D03*
X222615600Y-43510200D03*
%TD*%
D28*
%TO.C,R134*%
X226669600Y-111301900D03*
D27*
X226669600Y-114401900D03*
%TD*%
D24*
%TO.C,D3*%
X112455800Y-26289000D03*
X112455800Y-27914600D03*
%TD*%
%TO.C,D9*%
X172095000Y-23901400D03*
X172095000Y-25527000D03*
%TD*%
D14*
%TO.C,C163*%
X231698800Y-111427700D03*
X231698800Y-114377700D03*
%TD*%
D10*
%TO.C,C67*%
X232521600Y-72644000D03*
X232521600Y-74218800D03*
%TD*%
%TO.C,R63*%
X195894800Y-49606200D03*
X195894800Y-51181000D03*
%TD*%
D28*
%TO.C,R124*%
X223951800Y-91820400D03*
X223951800Y-94920400D03*
%TD*%
D34*
%TO.C,U11*%
X198653400Y-60563700D03*
X197383400Y-60563700D03*
X196113400Y-60563700D03*
X194843400Y-60563700D03*
X194843400Y-71223700D03*
X196113400Y-71223700D03*
X197383400Y-71223700D03*
X198653400Y-71223700D03*
%TD*%
D10*
%TO.C,R64*%
X196402800Y-73990200D03*
X196402800Y-75565000D03*
%TD*%
D16*
%TO.C,R120*%
X156659399Y-106093400D03*
X159759399Y-106093400D03*
%TD*%
D21*
%TO.C,C226*%
X246534200Y-103632000D03*
D20*
X243584200Y-103632000D03*
%TD*%
D10*
%TO.C,R75*%
X211134800Y-73482200D03*
X211134800Y-75057000D03*
%TD*%
D13*
%TO.C,R137*%
X245948800Y-106324400D03*
X242848800Y-106324400D03*
%TD*%
D22*
%TO.C,FB3*%
X123555600Y-33934400D03*
X123555600Y-35407600D03*
%TD*%
D20*
%TO.C,C174*%
X130810000Y-88265000D03*
D21*
X127860000Y-88265000D03*
%TD*%
D19*
%TO.C,R135*%
X229285800Y-114452700D03*
X229285800Y-111352700D03*
%TD*%
D25*
%TO.C,C185*%
X127811000Y-110896400D03*
D26*
X130761000Y-110896400D03*
%TD*%
D20*
%TO.C,C182*%
X130456200Y-102819200D03*
D21*
X127506200Y-102819200D03*
%TD*%
D28*
%TO.C,R32*%
X102463600Y-92887200D03*
X102463600Y-95987200D03*
%TD*%
D13*
%TO.C,R117*%
X164390000Y-98168600D03*
X161290000Y-98168600D03*
%TD*%
D30*
%TO.C,R61*%
X194701000Y-46786800D03*
X197596600Y-46786800D03*
%TD*%
D10*
%TO.C,C12*%
X123733400Y-73990200D03*
X123733400Y-72415400D03*
%TD*%
D17*
%TO.C,C21*%
X97129600Y-95810600D03*
D18*
X97129600Y-92860600D03*
%TD*%
D19*
%TO.C,R43*%
X116840000Y-96038000D03*
D32*
X116840000Y-92938000D03*
%TD*%
D11*
%TO.C,U34*%
X194069000Y-108735000D03*
X194069000Y-107465000D03*
X194069000Y-106195000D03*
X194069000Y-104925000D03*
X189269000Y-104925000D03*
X189269000Y-106195000D03*
X189269000Y-107465000D03*
X189269000Y-108735000D03*
%TD*%
D38*
%TO.C,U25*%
X105885399Y-100584000D03*
X105885399Y-101854000D03*
X105885399Y-103124000D03*
X105885399Y-104394000D03*
X105885399Y-105664000D03*
X105885399Y-106934000D03*
X105885399Y-108204000D03*
X111335398Y-108204000D03*
X111335398Y-106934000D03*
X111335398Y-105664000D03*
X111335398Y-104394000D03*
X111335398Y-103124000D03*
X111335398Y-101854000D03*
X111335398Y-100584000D03*
%TD*%
D10*
%TO.C,R66*%
X198053800Y-73990200D03*
X198053800Y-75565000D03*
%TD*%
D13*
%TO.C,R35*%
X102489600Y-108102400D03*
X99389600Y-108102400D03*
%TD*%
D25*
%TO.C,C201*%
X149896799Y-110454800D03*
D26*
X152846799Y-110454800D03*
%TD*%
D25*
%TO.C,C192*%
X149337999Y-96789600D03*
D26*
X152287999Y-96789600D03*
%TD*%
D14*
%TO.C,C173*%
X83616800Y-92403400D03*
D15*
X83616800Y-95353400D03*
%TD*%
D39*
%TO.C,C28*%
X166024400Y-73329800D03*
X166024400Y-77698600D03*
%TD*%
D10*
%TO.C,R25*%
X146237800Y-73507600D03*
X146237800Y-75082400D03*
%TD*%
D30*
%TO.C,R60*%
X194701000Y-43103800D03*
X197596600Y-43103800D03*
%TD*%
D11*
%TO.C,U27*%
X85738000Y-104825800D03*
X85738000Y-106095800D03*
X85738000Y-107365800D03*
X85738000Y-108635800D03*
X90538000Y-108635800D03*
X90538000Y-107365800D03*
X90538000Y-106095800D03*
X90538000Y-104825800D03*
%TD*%
D10*
%TO.C,C49*%
X183118600Y-74320400D03*
X183118600Y-72745600D03*
%TD*%
%TO.C,R24*%
X144561400Y-49860200D03*
X144561400Y-51435000D03*
%TD*%
D36*
%TO.C,C18*%
X146466400Y-55727600D03*
X144434400Y-55727600D03*
%TD*%
D32*
%TO.C,R49*%
X118922800Y-114681600D03*
D19*
X118922800Y-111581600D03*
%TD*%
%TO.C,R130*%
X244449600Y-95149000D03*
D32*
X244449600Y-92049000D03*
%TD*%
D38*
%TO.C,U30*%
X168446199Y-97406600D03*
X168446199Y-98676600D03*
X168446199Y-99946600D03*
X168446199Y-101216600D03*
X168446199Y-102486600D03*
X168446199Y-103756600D03*
X168446199Y-105026600D03*
X173896198Y-105026600D03*
X173896198Y-103756600D03*
X173896198Y-102486600D03*
X173896198Y-101216600D03*
X173896198Y-99946600D03*
X173896198Y-98676600D03*
X173896198Y-97406600D03*
%TD*%
D36*
%TO.C,C68*%
X227949600Y-53975000D03*
X225917600Y-53975000D03*
%TD*%
D22*
%TO.C,FB1*%
X95107600Y-33680400D03*
X95107600Y-35153600D03*
%TD*%
D10*
%TO.C,C42*%
X202575000Y-55727600D03*
X202575000Y-57302400D03*
%TD*%
D17*
%TO.C,C160*%
X239318800Y-95175600D03*
X239318800Y-92225600D03*
%TD*%
%TO.C,C161*%
X247065800Y-95023200D03*
D18*
X247065800Y-92073200D03*
%TD*%
D10*
%TO.C,R33*%
X166049800Y-28168600D03*
X166049800Y-29743400D03*
%TD*%
D15*
%TO.C,C36*%
X121666000Y-111555000D03*
X121666000Y-114505000D03*
%TD*%
D13*
%TO.C,R136*%
X251180600Y-106959400D03*
X248080600Y-106959400D03*
%TD*%
D17*
%TO.C,C190*%
X156558999Y-88670800D03*
D18*
X156558999Y-85720800D03*
%TD*%
D14*
%TO.C,C217*%
X253267000Y-95837700D03*
D15*
X253267000Y-98787700D03*
%TD*%
D34*
%TO.C,U1*%
X94615000Y-60462100D03*
X93345000Y-60462100D03*
X92075000Y-60462100D03*
X90805000Y-60462100D03*
X90805000Y-71122100D03*
X92075000Y-71122100D03*
X93345000Y-71122100D03*
X94615000Y-71122100D03*
%TD*%
D25*
%TO.C,C221*%
X214374200Y-113233200D03*
D26*
X217324200Y-113233200D03*
%TD*%
D10*
%TO.C,C17*%
X215706800Y-57302400D03*
X215706800Y-55727600D03*
%TD*%
D17*
%TO.C,C34*%
X111861600Y-95912200D03*
X111861600Y-92962200D03*
%TD*%
D14*
%TO.C,C162*%
X224180400Y-111249900D03*
D15*
X224180400Y-114199900D03*
%TD*%
D20*
%TO.C,C175*%
X130811800Y-85953600D03*
D21*
X127861800Y-85953600D03*
%TD*%
D10*
%TO.C,C23*%
X158201200Y-74498200D03*
X158201200Y-72923400D03*
%TD*%
D28*
%TO.C,R29*%
X94437200Y-92785600D03*
X94437200Y-95885600D03*
%TD*%
D19*
%TO.C,R37*%
X101752400Y-115037200D03*
X101752400Y-111937200D03*
%TD*%
D16*
%TO.C,R121*%
X161816199Y-105128200D03*
X164916199Y-105128200D03*
%TD*%
D28*
%TO.C,R45*%
X114401600Y-92938000D03*
X114401600Y-96038000D03*
%TD*%
D13*
%TO.C,R34*%
X96139600Y-107645200D03*
X93039600Y-107645200D03*
%TD*%
D10*
%TO.C,R14*%
X120736200Y-49504600D03*
X120736200Y-51079400D03*
%TD*%
%TO.C,C33*%
X125790800Y-55346600D03*
X125790800Y-56921400D03*
%TD*%
D14*
%TO.C,C39*%
X174066800Y-91461200D03*
X174066800Y-94411200D03*
%TD*%
D17*
%TO.C,C157*%
X166922199Y-112495400D03*
X166922199Y-109545400D03*
%TD*%
%TO.C,C165*%
X241350800Y-113895400D03*
X241350800Y-110945400D03*
%TD*%
D10*
%TO.C,C57*%
X200847800Y-74041000D03*
X200847800Y-72466200D03*
%TD*%
D37*
%TO.C,R71*%
X207274000Y-41833800D03*
X207274000Y-43865800D03*
%TD*%
D28*
%TO.C,R127*%
X231368600Y-91896600D03*
X231368600Y-94996600D03*
%TD*%
D39*
%TO.C,C16*%
X139760800Y-73761600D03*
X139760800Y-78130400D03*
%TD*%
D20*
%TO.C,C203*%
X193144000Y-102816800D03*
D21*
X190194000Y-102816800D03*
%TD*%
D12*
%TO.C,R1*%
X93750300Y-26365200D03*
X98375300Y-26365200D03*
%TD*%
D10*
%TO.C,C20*%
X149311200Y-73990200D03*
X149311200Y-72415400D03*
%TD*%
%TO.C,C44*%
X232572400Y-55727600D03*
X232572400Y-57302400D03*
%TD*%
D32*
%TO.C,R138*%
X246329200Y-113843400D03*
D19*
X246329200Y-110743400D03*
%TD*%
D22*
%TO.C,R19*%
X134249000Y-33401000D03*
X132674200Y-33401000D03*
%TD*%
D24*
%TO.C,D5*%
X141665800Y-26492200D03*
X141665800Y-28117800D03*
%TD*%
D34*
%TO.C,U5*%
X147447000Y-60157300D03*
X146177000Y-60157300D03*
X144907000Y-60157300D03*
X143637000Y-60157300D03*
X143637000Y-70817300D03*
X144907000Y-70817300D03*
X146177000Y-70817300D03*
X147447000Y-70817300D03*
%TD*%
D17*
%TO.C,C154*%
X182398000Y-94462000D03*
D18*
X182398000Y-91512000D03*
%TD*%
D38*
%TO.C,U35*%
X233513201Y-99771200D03*
X233513201Y-101041200D03*
X233513201Y-102311200D03*
X233513201Y-103581200D03*
X233513201Y-104851200D03*
X233513201Y-106121200D03*
X233513201Y-107391200D03*
X238963200Y-107391200D03*
X238963200Y-106121200D03*
X238963200Y-104851200D03*
X238963200Y-103581200D03*
X238963200Y-102311200D03*
X238963200Y-101041200D03*
X238963200Y-99771200D03*
%TD*%
D28*
%TO.C,R108*%
X185471400Y-91589400D03*
X185471400Y-94689400D03*
%TD*%
D30*
%TO.C,R73*%
X209890200Y-45491400D03*
X212785800Y-45491400D03*
%TD*%
D10*
%TO.C,R88*%
X227771800Y-73482200D03*
X227771800Y-75057000D03*
%TD*%
%TO.C,R2*%
X92008800Y-49199800D03*
X92008800Y-50774600D03*
%TD*%
%TO.C,R78*%
X212912800Y-73482200D03*
X212912800Y-75057000D03*
%TD*%
D20*
%TO.C,C179*%
X89714600Y-102616000D03*
D21*
X86764600Y-102616000D03*
%TD*%
D10*
%TO.C,C4*%
X96834800Y-73685400D03*
X96834800Y-72110600D03*
%TD*%
D25*
%TO.C,C181*%
X86307400Y-113284000D03*
D26*
X89257400Y-113284000D03*
%TD*%
D27*
%TO.C,R31*%
X99771200Y-92785600D03*
D28*
X99771200Y-95885600D03*
%TD*%
D33*
%TO.C,U6*%
X156321600Y-72288400D03*
X155381800Y-72288400D03*
X154442000Y-72288400D03*
X154442000Y-74676000D03*
X156321600Y-74676000D03*
%TD*%
D20*
%TO.C,C198*%
X153024599Y-102885600D03*
D21*
X150074599Y-102885600D03*
%TD*%
D10*
%TO.C,R11*%
X118958200Y-49504600D03*
X118958200Y-51079400D03*
%TD*%
%TO.C,R21*%
X141665800Y-32232600D03*
X141665800Y-33807400D03*
%TD*%
D22*
%TO.C,R6*%
X107909200Y-33401000D03*
X106334400Y-33401000D03*
%TD*%
D34*
%TO.C,U14*%
X228422200Y-60766900D03*
X227152200Y-60766900D03*
X225882200Y-60766900D03*
X224612200Y-60766900D03*
X224612200Y-71426900D03*
X225882200Y-71426900D03*
X227152200Y-71426900D03*
X228422200Y-71426900D03*
%TD*%
D13*
%TO.C,R133*%
X230835800Y-106578400D03*
X227735800Y-106578400D03*
%TD*%
D14*
%TO.C,C159*%
X233857800Y-91946200D03*
X233857800Y-94896200D03*
%TD*%
D20*
%TO.C,C178*%
X89765400Y-100025200D03*
D21*
X86815400Y-100025200D03*
%TD*%
D10*
%TO.C,R89*%
X227822600Y-48615600D03*
X227822600Y-50190400D03*
%TD*%
D20*
%TO.C,C195*%
X194940199Y-88796000D03*
D21*
X191990199Y-88796000D03*
%TD*%
D10*
%TO.C,R87*%
X226120800Y-73482200D03*
X226120800Y-75057000D03*
%TD*%
D25*
%TO.C,C193*%
X149388799Y-94376600D03*
D26*
X152338799Y-94376600D03*
%TD*%
D31*
%TO.C,T3*%
X152740200Y-69799200D03*
X155280200Y-69799200D03*
X157820200Y-69799200D03*
X157820200Y-60680600D03*
X155280200Y-60680600D03*
X152740200Y-60680600D03*
%TD*%
D25*
%TO.C,C176*%
X128979400Y-96215200D03*
D26*
X131929400Y-96215200D03*
%TD*%
D19*
%TO.C,R128*%
X249758200Y-95098200D03*
X249758200Y-91998200D03*
%TD*%
D31*
%TO.C,T5*%
X178165600Y-70358000D03*
X180705600Y-70358000D03*
X183245600Y-70358000D03*
X183245600Y-61239400D03*
X180705600Y-61239400D03*
X178165600Y-61239400D03*
%TD*%
D10*
%TO.C,C60*%
X202575000Y-72466200D03*
X202575000Y-74041000D03*
%TD*%
D20*
%TO.C,C187*%
X102262200Y-104495600D03*
D21*
X99312200Y-104495600D03*
%TD*%
D19*
%TO.C,R119*%
X165735600Y-94587800D03*
X165735600Y-91487800D03*
%TD*%
D20*
%TO.C,C218*%
X217476600Y-104876600D03*
D21*
X214526600Y-104876600D03*
%TD*%
M02*
