M48
; DRILL file {KiCad (5.99.0-10177-gd878cbddbc)} date Tue May 11 02:45:37 2021
; FORMAT={-:-/ absolute / inch / decimal}
; #@! TF.CreationDate,2021-05-11T02:45:37+02:00
; #@! TF.GenerationSoftware,Kicad,Pcbnew,(5.99.0-10177-gd878cbddbc)
; #@! TF.FileFunction,Plated,1,4,PTH
FMAT,2
INCH
; #@! TA.AperFunction,Plated,PTH,ViaDrill
T1C0.0157
; #@! TA.AperFunction,Plated,PTH,ViaDrill
T2C0.0160
; #@! TA.AperFunction,Plated,PTH,ViaDrill
T3C0.0200
; #@! TA.AperFunction,Plated,PTH,ComponentDrill
T4C0.0200
; #@! TA.AperFunction,Plated,PTH,ComponentDrill
T5C0.0320
; #@! TA.AperFunction,Plated,PTH,ComponentDrill
T6C0.0350
; #@! TA.AperFunction,Plated,PTH,ComponentDrill
T7C0.0394
; #@! TA.AperFunction,Plated,PTH,ComponentDrill
T8C0.0400
; #@! TA.AperFunction,Plated,PTH,ComponentDrill
T9C0.0450
; #@! TA.AperFunction,Plated,PTH,ComponentDrill
T10C0.0490
; #@! TA.AperFunction,Plated,PTH,ComponentDrill
T11C0.0600
; #@! TA.AperFunction,Plated,PTH,ComponentDrill
T12C0.1200
; #@! TA.AperFunction,Plated,PTH,ComponentDrill
T13C0.1280
%
G90
G05
T1
X3.346Y-3.546
X3.3592Y-3.3732
X3.372Y-5.098
X3.382Y-4.904
X3.514Y-2.818
X3.656Y-5.17
X3.708Y-5.172
X3.804Y-3.55
X3.816Y-5.136
X3.844Y-4.25
X3.884Y-4.554
X3.888Y-3.934
X3.948Y-3.378
X4.052Y-4.952
X4.1Y-4.246
X4.192Y-4.442
X4.236Y-4.048
X4.292Y-4.04
X4.356Y-4.444
X4.454Y-4.24
X4.5Y-4.96
X4.5Y-5.19
X4.6628Y-3.362
X4.692Y-3.9
X4.6939Y-4.5321
X4.7008Y-3.508
X4.708Y-4.248
X4.812Y-5.212
X4.864Y-5.214
X4.9608Y-3.362
X5.052Y-5.156
X5.148Y-4.926
X5.18Y-3.574
X5.6712Y-3.384
X5.6712Y-3.574
X5.7192Y-5.165
X5.7272Y-4.971
X6.0352Y-5.225
X6.0832Y-5.225
X6.1012Y-3.37
X6.2272Y-4.973
X6.31Y-4.226
X6.33Y-3.916
X6.352Y-4.526
X6.382Y-5.184
X6.4332Y-3.53
X6.574Y-4.226
X6.682Y-4.412
X6.706Y-4.028
X6.792Y-4.028
X6.83Y-4.414
X6.942Y-4.23
X7.074Y-2.374
X7.12Y-5.168
X7.124Y-4.972
X7.17Y-4.528
X7.19Y-3.924
X7.218Y-4.23
X7.224Y-3.382
X7.226Y-3.496
X7.412Y-5.23
X7.462Y-5.23
X7.636Y-3.576
X7.668Y-3.386
X7.714Y-4.96
X7.722Y-5.188
X8.29Y-3.368
X8.29Y-3.618
X8.452Y-4.938
X8.456Y-5.142
X8.732Y-5.188
X8.784Y-5.188
X8.916Y-3.368
X8.948Y-5.126
X8.952Y-4.936
X8.9619Y-4.228
X8.986Y-3.938
X9.106Y-3.526
X9.122Y-4.578
X9.222Y-4.224
X9.32Y-1.102
X9.3467Y-4.444
X9.3707Y-4.03
X9.4307Y-4.03
X9.4727Y-4.446
X9.564Y-1.112
X9.5867Y-4.226
X9.642Y-3.366
X9.652Y-3.514
X9.772Y-2.098
X9.772Y-2.196
X9.774Y-4.93
X9.774Y-5.134
X9.776Y-2.414
X9.776Y-4.584
X9.778Y-2.306
X9.792Y-2.524
X9.796Y-2.632
X9.81Y-3.924
X9.896Y-4.23
X9.982Y-2.094
X9.982Y-2.188
X9.992Y-2.63
X9.994Y-2.522
X9.996Y-2.308
X9.996Y-2.416
X10.022Y-5.19
X10.072Y-5.192
X10.168Y-3.406
X10.186Y-2.096
X10.186Y-2.19
X10.186Y-2.522
X10.186Y-2.63
X10.198Y-2.306
X10.2Y-2.412
X10.336Y-3.588
X10.34Y-4.928
X10.344Y-5.124
T2
X3.4414Y-1.465
X3.5124Y-1.57
X3.5424Y-1.47
X3.5674Y-1.53
X3.5674Y-1.57
X3.6274Y-2.31
X3.6924Y-2.31
X3.7634Y-2.179
X3.7634Y-2.242
X3.7634Y-2.839
X3.7634Y-2.902
X4.0564Y-2.385
X4.0574Y-2.425
X4.2174Y-2.98
X4.3504Y-2.994
X4.4474Y-2.735
X4.4504Y-2.816
X4.5124Y-1.53
X4.5174Y-1.47
X4.5424Y-1.57
X4.5674Y-1.53
X4.5704Y-2.824
X4.6924Y-2.315
X4.7474Y-2.315
X4.8244Y-2.851
X4.8254Y-2.914
X5.0474Y-2.42
X5.0494Y-2.378
X5.1924Y-2.975
X5.3134Y-3.042
X5.4074Y-2.76
X5.4264Y-2.903
X5.5024Y-3.18
X5.5424Y-1.5
X5.5424Y-1.555
X5.5604Y-1.435
X5.5754Y-2.821
X5.5914Y-2.904
X5.5974Y-1.5
X5.5974Y-1.555
X5.6924Y-2.308
X5.7534Y-2.306
X5.8254Y-2.851
X5.8254Y-2.914
X5.8384Y-2.256
X5.8394Y-2.193
X6.0524Y-2.41
X6.0624Y-2.365
X6.2284Y-2.99
X6.3424Y-3.003
X6.4484Y-3.06
X6.4614Y-2.887
X6.4754Y-2.705
X6.5154Y-1.55
X6.5174Y-1.441
X6.5174Y-1.495
X6.5174Y-1.936
X6.5674Y-1.55
X6.5674Y-1.936
X6.6074Y-2.887
X6.8254Y-0.941
X7.0024Y-2.054
X7.0304Y-2.093
X7.0524Y-2.054
X7.0614Y-0.94
X7.0724Y-2.427
X7.1124Y-1.586
X7.1874Y-1.556
X7.2174Y-1.486
X7.2224Y-1.531
X7.2474Y-1.756
X7.2674Y-1.496
X7.2924Y-1.081
X7.4194Y-2.77
X7.4394Y-2.933
X7.4484Y-2.818
X7.5494Y-2.305
X7.5674Y-1.835
X7.6074Y-2.832
X7.6304Y-2.175
X7.6434Y-1.48
X7.6574Y-1.953
X7.7274Y-2.324
X7.7774Y-2.324
X7.8554Y-2.919
X7.8564Y-2.853
X7.8584Y-2.19
X7.8584Y-2.292
X8.1004Y-2.297
X8.1604Y-1.793
X8.1924Y-2.834
X8.1964Y-2.181
X8.2364Y-1.501
X8.2574Y-1.91
X8.3184Y-2.311
X8.3644Y-2.311
X8.4394Y-2.861
X8.4394Y-2.924
X8.4474Y-2.194
X8.4474Y-2.256
X8.6724Y-2.304
X8.7554Y-2.18
X8.7644Y-1.781
X8.7884Y-2.835
X8.8284Y-1.51
X8.8474Y-1.913
X8.9064Y-2.325
X8.9584Y-2.32
X9.0364Y-2.197
X9.0364Y-2.259
X9.0364Y-2.857
X9.0374Y-2.927
X9.0874Y-3.1
X9.1474Y-2.975
X9.286Y-1.191
X9.296Y-1.391
X9.346Y-1.391
X9.396Y-1.391
X9.616Y-1.151
X9.711Y-1.211
X9.826Y-1.056
X9.916Y-1.151
X10.021Y-1.141
X10.136Y-1.202
X10.253Y-1.637
X10.254Y-1.703
X10.257Y-1.568
X10.323Y-1.568
X10.323Y-1.637
X10.324Y-1.706
X10.387Y-1.568
X10.389Y-1.635
X10.389Y-1.705
X10.616Y-1.26
X10.616Y-1.331
T3
X3.1574Y-1.52
X3.4064Y-1.168
X3.4094Y-0.903
X3.4094Y-1.091
X3.4104Y-0.987
X3.4154Y-0.816
X3.4264Y-2.338
X3.4734Y-0.765
X3.4824Y-0.906
X3.5124Y-1.07
X3.5124Y-1.17
X3.5124Y-1.92
X3.5134Y-0.986
X3.5674Y-1.92
X4.0034Y-2.034
X4.0524Y-1.695
X4.0724Y-2.11
X4.0784Y-1.174
X4.0874Y-2.045
X4.1094Y-0.969
X4.1124Y-1.04
X4.1144Y-0.849
X4.1144Y-1.109
X4.1184Y-0.767
X4.1274Y-1.7
X4.1544Y-1.648
X4.1884Y-0.967
X4.1904Y-1.04
X4.1904Y-1.107
X4.1924Y-0.842
X4.2074Y-1.66
X4.2224Y-1.76
X4.2624Y-1.66
X4.2824Y-0.99
X4.2824Y-1.53
X4.2824Y-1.615
X4.2864Y-1.24
X4.4304Y-0.985
X4.5074Y-1.93
X4.5124Y-2.28
X4.5144Y-1.097
X4.5154Y-0.87
X4.5154Y-0.976
X4.5524Y-0.792
X4.5554Y-1.041
X4.5574Y-1.178
X4.5624Y-1.93
X4.5874Y-0.872
X4.5884Y-0.975
X4.5894Y-1.098
X4.6424Y-1.175
X4.8304Y-2.179
X4.8304Y-2.242
X5.0064Y-2.033
X5.0604Y-1.694
X5.0624Y-2.115
X5.0784Y-2.031
X5.1624Y-1.66
X5.1974Y-1.14
X5.2164Y-0.862
X5.2204Y-0.755
X5.2204Y-0.963
X5.2214Y-1.041
X5.2224Y-1.66
X5.2344Y-1.759
X5.2524Y-1.09
X5.2774Y-1.66
X5.2874Y-1.54
X5.2874Y-1.6
X5.2894Y-0.859
X5.2964Y-0.965
X5.2964Y-1.134
X5.3024Y-1.043
X5.3774Y-1.015
X5.5194Y-2.294
X5.5354Y-1.913
X5.5774Y-0.995
X5.5974Y-1.915
X5.6494Y-0.954
X5.6534Y-0.864
X5.6544Y-1.039
X5.6574Y-1.181
X5.7064Y-1.114
X5.7114Y-0.77
X5.7474Y-0.949
X5.7494Y-0.868
X5.7544Y-1.04
X5.7684Y-1.182
X6.0384Y-2.029
X6.0774Y-2.1
X6.0924Y-1.69
X6.1124Y-2.028
X6.2004Y-1.668
X6.2634Y-1.674
X6.2704Y-1.846
X6.3194Y-1.659
X6.3274Y-1.551
X6.3294Y-1.607
X6.346Y-1.116
X6.3524Y-1.03
X6.3794Y-0.857
X6.3814Y-0.93
X6.3974Y-0.76
X6.4134Y-1.085
X6.438Y-1.128
X6.4604Y-1.022
X6.4654Y-0.929
X6.4674Y-0.856
X6.5374Y-0.915
T4
X7.9964Y-0.97
X8.5984Y-0.987
T5
X4.3724Y-2.45
X4.3724Y-2.65
X5.3574Y-2.45
X5.3574Y-2.65
X6.3824Y-2.45
X6.3824Y-2.65
X7.3994Y-2.455
X7.3994Y-2.655
T6
X9.3824Y-2.875
X9.3824Y-2.975
X9.3824Y-3.075
T7
X3.844Y-3.64
X3.884Y-4.846
X3.944Y-3.64
X3.984Y-4.846
X4.07Y-3.64
X4.108Y-4.846
X4.17Y-3.64
X4.208Y-4.846
X4.322Y-3.636
X4.364Y-4.846
X4.422Y-3.636
X4.464Y-4.846
X4.55Y-3.636
X4.592Y-4.848
X4.65Y-3.636
X4.692Y-4.848
X6.3Y-3.642
X6.368Y-4.832
X6.4Y-3.642
X6.468Y-4.832
X6.532Y-3.642
X6.6Y-4.832
X6.632Y-3.642
X6.7Y-4.832
X6.872Y-3.64
X6.888Y-4.832
X6.972Y-3.64
X6.988Y-4.832
X7.104Y-3.644
X7.122Y-4.832
X7.204Y-3.644
X7.222Y-4.832
X8.922Y-3.628
X8.99Y-4.82
X9.022Y-3.628
X9.09Y-4.82
X9.15Y-3.63
X9.212Y-4.822
X9.25Y-3.63
X9.312Y-4.822
X9.506Y-4.822
X9.522Y-3.628
X9.606Y-4.822
X9.622Y-3.628
X9.742Y-4.826
X9.746Y-3.628
X9.842Y-4.826
X9.846Y-3.628
T8
X4.0724Y-1.315
X5.1114Y-1.312
X6.0164Y-3.001
X6.1644Y-1.313
X7.122Y-1.182
X8.68Y-2.856
X9.74Y-1.438
T9
X3.6064Y-3.118
X3.6064Y-3.218
X3.7264Y-3.116
X3.7264Y-3.216
X4.6684Y-3.121
X4.6684Y-3.221
X4.7874Y-3.122
X4.7874Y-3.222
X5.2675Y-5.6603
X5.4053Y-5.6603
X5.5431Y-5.6603
X5.6644Y-3.159
X5.6644Y-3.259
X5.6809Y-5.6603
X5.7844Y-3.159
X5.7844Y-3.259
X5.8187Y-5.6603
X5.9565Y-5.6603
X7.7014Y-3.116
X7.7014Y-3.216
X7.8224Y-3.115
X7.8224Y-3.215
X7.9295Y-5.66
X8.0673Y-5.66
X8.2051Y-5.66
X8.2894Y-3.112
X8.2894Y-3.212
X8.3429Y-5.66
X8.4094Y-3.111
X8.4094Y-3.211
X8.4807Y-5.66
X8.6185Y-5.66
X8.8734Y-3.109
X8.8734Y-3.209
X8.9934Y-3.11
X8.9934Y-3.21
T10
X7.5254Y-0.888
X7.7254Y-0.888
X8.1344Y-0.896
X8.3344Y-0.896
X8.7214Y-0.896
X8.9214Y-0.896
X10.45Y-2.19
X10.45Y-2.39
X10.45Y-2.59
X10.502Y-0.844
X10.502Y-1.044
T11
X4.3724Y-2.55
X5.3574Y-2.55
X6.3824Y-2.55
X7.3994Y-2.555
T12
X3.6274Y-0.835
X3.9524Y-0.835
X4.7324Y-0.84
X5.0604Y-0.84
X5.8924Y-0.84
X6.2224Y-0.84
T13
X3.2084Y-0.882
X3.261Y-5.614
X9.3084Y-0.887
T0
M30
