%TF.GenerationSoftware,KiCad,Pcbnew,(5.99.0-10177-gd878cbddbc)*%
%TF.CreationDate,2021-05-11T02:45:32+02:00*%
%TF.ProjectId,TIDA-00555_E2,54494441-2d30-4303-9535-355f45322e6b,rev?*%
%TF.SameCoordinates,Original*%
%TF.FileFunction,Soldermask,Bot*%
%TF.FilePolarity,Negative*%
%FSLAX46Y46*%
G04 Gerber Fmt 4.6, Leading zero omitted, Abs format (unit mm)*
G04 Created by KiCad (PCBNEW (5.99.0-10177-gd878cbddbc)) date 2021-05-11 02:45:32*
%MOMM*%
%LPD*%
G01*
G04 APERTURE LIST*
%ADD10R,1.625600X1.625600*%
%ADD11C,1.625600*%
%ADD12C,1.651000*%
%ADD13C,5.080000*%
%ADD14C,1.778000*%
%ADD15O,0.508000X7.162800*%
%ADD16C,2.000000*%
%ADD17O,11.430000X1.498600*%
%ADD18C,3.251200*%
%ADD19R,1.727200X1.727200*%
%ADD20C,1.727200*%
%ADD21C,1.524000*%
%ADD22R,1.498600X1.498600*%
%ADD23C,1.498600*%
%ADD24C,1.752600*%
%ADD25R,1.828800X1.295400*%
%ADD26R,0.990600X0.939800*%
%ADD27R,1.295400X1.828800*%
%ADD28R,0.914400X1.219200*%
%ADD29R,0.787400X0.584200*%
%ADD30R,2.692400X1.295400*%
%ADD31R,1.295400X2.692400*%
%ADD32R,1.600200X1.270000*%
%ADD33R,0.635000X1.092200*%
%ADD34R,1.397000X2.184400*%
%ADD35R,1.397000X0.889000*%
%ADD36R,2.184400X1.397000*%
%ADD37R,0.889000X1.397000*%
%ADD38R,1.270000X1.600200*%
%ADD39R,0.939800X0.990600*%
%ADD40R,0.381000X1.270000*%
%ADD41R,1.905000X1.524000*%
%ADD42C,0.990600*%
G04 APERTURE END LIST*
D10*
%TO.C,J26*%
X228432200Y-81534000D03*
D11*
X228432200Y-78994000D03*
%TD*%
D12*
%TO.C,J8*%
X133794797Y-143771600D03*
X137294800Y-143771600D03*
X140794801Y-143771600D03*
X144294802Y-143771600D03*
X147794802Y-143771600D03*
X151294803Y-143771600D03*
%TD*%
D10*
%TO.C,J27*%
X225384200Y-81508600D03*
D11*
X225384200Y-78968600D03*
%TD*%
D13*
%TO.C,TP7*%
X149666800Y-21336000D03*
%TD*%
D14*
%TO.C,TP16*%
X180898800Y-30022800D03*
%TD*%
D13*
%TO.C,TP8*%
X158048800Y-21336000D03*
%TD*%
D15*
%TO.C,*%
X218399200Y-25069800D03*
%TD*%
D16*
%TO.C,TP29*%
X234950000Y-92202000D03*
X232410000Y-92202000D03*
%TD*%
D10*
%TO.C,J20*%
X146923600Y-82778600D03*
D11*
X146923600Y-80238600D03*
%TD*%
D14*
%TO.C,TP17*%
X220472000Y-72542400D03*
%TD*%
D10*
%TO.C,J21*%
X143875600Y-82778600D03*
D11*
X143875600Y-80238600D03*
%TD*%
D16*
%TO.C,TP21*%
X168452800Y-92506800D03*
X165912800Y-92506800D03*
%TD*%
%TO.C,TP15*%
X104343200Y-123088400D03*
X106883200Y-123088400D03*
%TD*%
D17*
%TO.C,*%
X111058800Y-64770000D03*
%TD*%
D18*
%TO.C,MH2*%
X82829400Y-142595600D03*
%TD*%
D16*
%TO.C,TP33*%
X236524800Y-122478800D03*
X233984800Y-122478800D03*
%TD*%
D18*
%TO.C,MH3*%
X236433200Y-22529800D03*
%TD*%
D19*
%TO.C,J15*%
X211693600Y-22758400D03*
D20*
X206613600Y-22758400D03*
%TD*%
D16*
%TO.C,TP22*%
X167640000Y-122732800D03*
X170180000Y-122732800D03*
%TD*%
%TO.C,TP23*%
X164287200Y-122732800D03*
X161747200Y-122732800D03*
%TD*%
D10*
%TO.C,J11*%
X91602400Y-81737200D03*
D11*
X91602400Y-79197200D03*
%TD*%
D18*
%TO.C,MH1*%
X81493200Y-22402800D03*
%TD*%
D16*
%TO.C,TP35*%
X247446800Y-122580400D03*
X249986800Y-122580400D03*
%TD*%
D12*
%TO.C,J29*%
X201409597Y-143764000D03*
X204909600Y-143764000D03*
X208409601Y-143764000D03*
X211909602Y-143764000D03*
X215409602Y-143764000D03*
X218909603Y-143764000D03*
%TD*%
D13*
%TO.C,TP5*%
X128534000Y-21336000D03*
%TD*%
D10*
%TO.C,J18*%
X121599800Y-81838800D03*
D11*
X121599800Y-79298800D03*
%TD*%
D16*
%TO.C,TP53*%
X113385600Y-123088400D03*
X110845600Y-123088400D03*
%TD*%
D17*
%TO.C,*%
X136077800Y-64770000D03*
%TD*%
D10*
%TO.C,J22*%
X198688800Y-81661000D03*
D11*
X198688800Y-79121000D03*
%TD*%
D16*
%TO.C,TP31*%
X247548400Y-92151200D03*
X250088400Y-92151200D03*
%TD*%
D10*
%TO.C,J23*%
X195615400Y-81686400D03*
D11*
X195615400Y-79146400D03*
%TD*%
D10*
%TO.C,J25*%
X210550600Y-81584800D03*
D11*
X210550600Y-79044800D03*
%TD*%
D16*
%TO.C,TP52*%
X119176800Y-123139200D03*
X116636800Y-123139200D03*
%TD*%
D14*
%TO.C,TP6*%
X129829400Y-33324800D03*
%TD*%
D21*
%TO.C,C51*%
X187944600Y-67437000D03*
X187944600Y-62357000D03*
%TD*%
D15*
%TO.C,*%
X203108400Y-24638000D03*
%TD*%
D21*
%TO.C,C7*%
X111058800Y-67310000D03*
X111058800Y-62230000D03*
%TD*%
D16*
%TO.C,TP26*%
X174955200Y-122732800D03*
X177495200Y-122732800D03*
%TD*%
D10*
%TO.C,J10*%
X94650400Y-81686400D03*
D11*
X94650400Y-79146400D03*
%TD*%
D10*
%TO.C,J19*%
X118577200Y-81813400D03*
D11*
X118577200Y-79273400D03*
%TD*%
D16*
%TO.C,TP11*%
X100177600Y-92456000D03*
X97637600Y-92456000D03*
%TD*%
%TO.C,TP28*%
X226618800Y-92151200D03*
X229158800Y-92151200D03*
%TD*%
D14*
%TO.C,TP9*%
X152816400Y-76225400D03*
%TD*%
D10*
%TO.C,J24*%
X213598600Y-81559400D03*
D11*
X213598600Y-79019400D03*
%TD*%
D16*
%TO.C,TP20*%
X160020000Y-92506800D03*
X162560000Y-92506800D03*
%TD*%
D22*
%TO.C,J28*%
X238312800Y-78105000D03*
D23*
X238312800Y-75565000D03*
X238312800Y-73025000D03*
%TD*%
D14*
%TO.C,TP10*%
X156575600Y-33350200D03*
%TD*%
D16*
%TO.C,TP24*%
X180441600Y-92557600D03*
X182981600Y-92557600D03*
%TD*%
%TO.C,TP51*%
X109778800Y-92354400D03*
X112318800Y-92354400D03*
%TD*%
D24*
%TO.C,J30*%
X265430000Y-55626000D03*
X265430000Y-60706000D03*
X265430000Y-65786000D03*
%TD*%
D13*
%TO.C,TP4*%
X120202800Y-21336000D03*
%TD*%
D16*
%TO.C,TP30*%
X244398800Y-92151200D03*
X241858800Y-92151200D03*
%TD*%
D13*
%TO.C,TP1*%
X92135800Y-21209000D03*
%TD*%
D17*
%TO.C,*%
X187944600Y-64897000D03*
%TD*%
D14*
%TO.C,TP3*%
X103438800Y-33401000D03*
%TD*%
D13*
%TO.C,TP2*%
X100390800Y-21209000D03*
%TD*%
D19*
%TO.C,J17*%
X266750800Y-26517600D03*
D20*
X266750800Y-21437600D03*
%TD*%
D19*
%TO.C,J16*%
X226603400Y-22758400D03*
D20*
X221523400Y-22758400D03*
%TD*%
D19*
%TO.C,J14*%
X196225000Y-22555200D03*
D20*
X191145000Y-22555200D03*
%TD*%
D16*
%TO.C,TP32*%
X230886000Y-122428000D03*
X228346000Y-122428000D03*
%TD*%
D17*
%TO.C,*%
X162112800Y-64770000D03*
%TD*%
D16*
%TO.C,TP27*%
X183438800Y-122732800D03*
X180898800Y-122732800D03*
%TD*%
%TO.C,TP12*%
X103378000Y-92456000D03*
X105918000Y-92456000D03*
%TD*%
%TO.C,TP34*%
X241452400Y-122478800D03*
X243992400Y-122478800D03*
%TD*%
%TO.C,TP50*%
X115570000Y-92354400D03*
X118110000Y-92354400D03*
%TD*%
D21*
%TO.C,C15*%
X136077800Y-67310000D03*
X136077800Y-62230000D03*
%TD*%
D16*
%TO.C,TP13*%
X101193600Y-123088400D03*
X98653600Y-123088400D03*
%TD*%
%TO.C,TP25*%
X174548800Y-92456000D03*
X177088800Y-92456000D03*
%TD*%
D21*
%TO.C,C26*%
X162112800Y-67310000D03*
X162112800Y-62230000D03*
%TD*%
D25*
%TO.C,R67*%
X201101800Y-24841200D03*
X201101800Y-27736800D03*
%TD*%
%TO.C,R90*%
X230870600Y-25577800D03*
X230870600Y-28473400D03*
%TD*%
D26*
%TO.C,C150*%
X93380400Y-48006000D03*
X94955200Y-48006000D03*
%TD*%
D27*
%TO.C,FB9*%
X198485600Y-22402800D03*
X201381200Y-22402800D03*
%TD*%
D28*
%TO.C,D39*%
X123885800Y-60883800D03*
X127137000Y-60883800D03*
%TD*%
D29*
%TO.C,D19*%
X194091400Y-60934600D03*
X194091400Y-59664600D03*
X195666200Y-60299600D03*
%TD*%
D26*
%TO.C,C120*%
X144307400Y-38862000D03*
X145882200Y-38862000D03*
%TD*%
%TO.C,C125*%
X130388200Y-53441600D03*
X131963000Y-53441600D03*
%TD*%
%TO.C,R104*%
X103464200Y-37592000D03*
X101889400Y-37592000D03*
%TD*%
%TO.C,R101*%
X132725000Y-39852600D03*
X131150200Y-39852600D03*
%TD*%
D30*
%TO.C,C121*%
X141538800Y-46786800D03*
X141538800Y-43891200D03*
%TD*%
D31*
%TO.C,C27*%
X235569600Y-78740000D03*
X232674000Y-78740000D03*
%TD*%
D28*
%TO.C,D45*%
X98612800Y-61010800D03*
X101864000Y-61010800D03*
%TD*%
D27*
%TO.C,FB11*%
X214055800Y-22783800D03*
X216951400Y-22783800D03*
%TD*%
D29*
%TO.C,D35*%
X142427800Y-58115200D03*
X142427800Y-56845200D03*
X144002600Y-57480200D03*
%TD*%
D26*
%TO.C,R52*%
X197012400Y-57124600D03*
X198587200Y-57124600D03*
%TD*%
D32*
%TO.C,C126*%
X130921600Y-37820600D03*
X130921600Y-35788600D03*
%TD*%
D26*
%TO.C,R103*%
X107274200Y-39878000D03*
X105699400Y-39878000D03*
%TD*%
%TO.C,C109*%
X156880400Y-52705000D03*
X158455200Y-52705000D03*
%TD*%
%TO.C,C118*%
X145069400Y-47498000D03*
X146644200Y-47498000D03*
%TD*%
D25*
%TO.C,R81*%
X216265600Y-35712400D03*
X216265600Y-38608000D03*
%TD*%
D30*
%TO.C,C116*%
X149158800Y-41986200D03*
X149158800Y-44881800D03*
%TD*%
D25*
%TO.C,R91*%
X230921400Y-30683200D03*
X230921400Y-33578800D03*
%TD*%
D31*
%TO.C,C73*%
X179715000Y-55397400D03*
X182610600Y-55397400D03*
%TD*%
D26*
%TO.C,C136*%
X117815200Y-39624000D03*
X119390000Y-39624000D03*
%TD*%
D25*
%TO.C,R68*%
X201076400Y-29845000D03*
X201076400Y-32740600D03*
%TD*%
D26*
%TO.C,C134*%
X118704200Y-47853600D03*
X120279000Y-47853600D03*
%TD*%
D33*
%TO.C,U16*%
X170672600Y-45288200D03*
X169732800Y-45288200D03*
X168793000Y-45288200D03*
X168793000Y-42900600D03*
X170672600Y-42900600D03*
%TD*%
D31*
%TO.C,C82*%
X172323600Y-50190400D03*
X169428000Y-50190400D03*
%TD*%
D34*
%TO.C,D44*%
X106994800Y-31496000D03*
D35*
X106994800Y-34036000D03*
%TD*%
D26*
%TO.C,C140*%
X107274200Y-45847000D03*
X105699400Y-45847000D03*
%TD*%
%TO.C,C80*%
X174787400Y-52730400D03*
X176362200Y-52730400D03*
%TD*%
%TO.C,C74*%
X182585200Y-44602400D03*
X181010400Y-44602400D03*
%TD*%
D31*
%TO.C,C131*%
X122361800Y-36550600D03*
X125257400Y-36550600D03*
%TD*%
D30*
%TO.C,C153*%
X89976800Y-47040800D03*
X89976800Y-44145200D03*
%TD*%
D36*
%TO.C,D46*%
X91881800Y-37465000D03*
D37*
X94421800Y-37465000D03*
%TD*%
D31*
%TO.C,C128*%
X124266800Y-55854600D03*
X127162400Y-55854600D03*
%TD*%
D26*
%TO.C,C141*%
X104937400Y-53213000D03*
X106512200Y-53213000D03*
%TD*%
%TO.C,C127*%
X128915000Y-39217600D03*
X127340200Y-39217600D03*
%TD*%
D38*
%TO.C,R98*%
X240334800Y-28194000D03*
X238302800Y-28194000D03*
%TD*%
D39*
%TO.C,C122*%
X132953600Y-36017200D03*
X132953600Y-37592000D03*
%TD*%
D32*
%TO.C,C142*%
X105470800Y-37846000D03*
X105470800Y-35814000D03*
%TD*%
D30*
%TO.C,C81*%
X174558800Y-39344600D03*
X174558800Y-42240200D03*
%TD*%
D31*
%TO.C,C147*%
X96911000Y-36576000D03*
X99806600Y-36576000D03*
%TD*%
D26*
%TO.C,R95*%
X180807200Y-34315400D03*
X179232400Y-34315400D03*
%TD*%
%TO.C,C152*%
X92364400Y-39624000D03*
X93939200Y-39624000D03*
%TD*%
D31*
%TO.C,C149*%
X96377600Y-50673000D03*
X93482000Y-50673000D03*
%TD*%
D38*
%TO.C,C119*%
X145983800Y-40894000D03*
X143951800Y-40894000D03*
%TD*%
D28*
%TO.C,D21*%
X181493000Y-60934600D03*
X184744200Y-60934600D03*
%TD*%
D29*
%TO.C,D41*%
X116748400Y-57531000D03*
X116748400Y-56261000D03*
X118323200Y-56896000D03*
%TD*%
D14*
%TO.C,TP18*%
X247396000Y-36525200D03*
%TD*%
D39*
%TO.C,C114*%
X151825800Y-44602400D03*
X151825800Y-43027600D03*
%TD*%
D27*
%TO.C,FB12*%
X228813200Y-22758400D03*
X231708800Y-22758400D03*
%TD*%
D31*
%TO.C,C123*%
X129727800Y-55854600D03*
X132623400Y-55854600D03*
%TD*%
D39*
%TO.C,FB17*%
X153502200Y-35433000D03*
X154975400Y-35433000D03*
%TD*%
D32*
%TO.C,C72*%
X182940800Y-34188400D03*
X182940800Y-32156400D03*
%TD*%
D29*
%TO.C,D18*%
X208188400Y-57632600D03*
X208188400Y-56362600D03*
X209763200Y-56997600D03*
%TD*%
D25*
%TO.C,R80*%
X216240200Y-30632400D03*
X216240200Y-33528000D03*
%TD*%
D38*
%TO.C,C84*%
X170164600Y-40741600D03*
X168132600Y-40741600D03*
%TD*%
D31*
%TO.C,C139*%
X104277000Y-55880000D03*
X107172600Y-55880000D03*
%TD*%
D39*
%TO.C,C78*%
X177606800Y-42087800D03*
X177606800Y-40513000D03*
%TD*%
D34*
%TO.C,D31*%
X159496600Y-31343600D03*
D35*
X159496600Y-33883600D03*
%TD*%
D29*
%TO.C,D16*%
X222412400Y-60477400D03*
X222412400Y-59207400D03*
X223987200Y-59842400D03*
%TD*%
D26*
%TO.C,C145*%
X99476400Y-53213000D03*
X101051200Y-53213000D03*
%TD*%
%TO.C,FB20*%
X115199000Y-42494200D03*
X115199000Y-41021000D03*
%TD*%
D36*
%TO.C,D24*%
X168056400Y-36474400D03*
D37*
X170596400Y-36474400D03*
%TD*%
D39*
%TO.C,FB21*%
X101940200Y-35814000D03*
X103413400Y-35814000D03*
%TD*%
D26*
%TO.C,FB18*%
X141411800Y-42265600D03*
X141411800Y-40792400D03*
%TD*%
D31*
%TO.C,C144*%
X98689000Y-55880000D03*
X101584600Y-55880000D03*
%TD*%
D33*
%TO.C,U20*%
X145907600Y-45897800D03*
X144967800Y-45897800D03*
X144028000Y-45897800D03*
X144028000Y-43510200D03*
X145907600Y-43510200D03*
%TD*%
D25*
%TO.C,R79*%
X216265600Y-25527000D03*
X216265600Y-28422600D03*
%TD*%
D26*
%TO.C,R105*%
X87411400Y-38608000D03*
X88986200Y-38608000D03*
%TD*%
%TO.C,C107*%
X159217200Y-45593000D03*
X157642400Y-45593000D03*
%TD*%
D25*
%TO.C,R69*%
X201076400Y-34950400D03*
X201076400Y-37846000D03*
%TD*%
D39*
%TO.C,FB19*%
X127391000Y-35788600D03*
X128864200Y-35788600D03*
%TD*%
D30*
%TO.C,C137*%
X115300600Y-47015400D03*
X115300600Y-44119800D03*
%TD*%
D28*
%TO.C,D32*%
X155153200Y-60579000D03*
X158404400Y-60579000D03*
%TD*%
%TO.C,D23*%
X175270000Y-60985400D03*
X178521200Y-60985400D03*
%TD*%
D26*
%TO.C,C129*%
X124546200Y-53187600D03*
X126121000Y-53187600D03*
%TD*%
D27*
%TO.C,R70*%
X198587200Y-37566600D03*
X195691600Y-37566600D03*
%TD*%
D26*
%TO.C,FB22*%
X89849800Y-42519600D03*
X89849800Y-41046400D03*
%TD*%
D29*
%TO.C,D17*%
X208264600Y-60706000D03*
X208264600Y-59436000D03*
X209839400Y-60071000D03*
%TD*%
D26*
%TO.C,C113*%
X150657400Y-52959000D03*
X152232200Y-52959000D03*
%TD*%
D31*
%TO.C,C115*%
X148473000Y-36855400D03*
X151368600Y-36855400D03*
%TD*%
D26*
%TO.C,C83*%
X169707400Y-47396400D03*
X171282200Y-47396400D03*
%TD*%
D39*
%TO.C,FB13*%
X179283200Y-32283400D03*
X180756400Y-32283400D03*
%TD*%
D36*
%TO.C,D34*%
X143672400Y-36703000D03*
D37*
X146212400Y-36703000D03*
%TD*%
D40*
%TO.C,U21*%
X127543400Y-41071800D03*
X128203800Y-41071800D03*
X128838800Y-41071800D03*
X129473800Y-41071800D03*
X129473800Y-44958000D03*
X128838800Y-44958000D03*
X128203800Y-44958000D03*
X127543400Y-44958000D03*
D41*
X128508600Y-43027600D03*
%TD*%
D33*
%TO.C,U22*%
X119542400Y-46278800D03*
X118602600Y-46278800D03*
X117662800Y-46278800D03*
X117662800Y-43891200D03*
X119542400Y-43891200D03*
%TD*%
D42*
%TO.C,FID5*%
X82423000Y-134874000D03*
%TD*%
D26*
%TO.C,C75*%
X180883400Y-52730400D03*
X182458200Y-52730400D03*
%TD*%
D28*
%TO.C,D37*%
X129880200Y-60858400D03*
X133131400Y-60858400D03*
%TD*%
D38*
%TO.C,C151*%
X94167800Y-41783000D03*
X92135800Y-41783000D03*
%TD*%
D26*
%TO.C,C111*%
X154848400Y-38785800D03*
X153273600Y-38785800D03*
%TD*%
D40*
%TO.C,U19*%
X153781600Y-40970200D03*
X154442000Y-40970200D03*
X155077000Y-40970200D03*
X155712000Y-40970200D03*
X155712000Y-44856400D03*
X155077000Y-44856400D03*
X154442000Y-44856400D03*
X153781600Y-44856400D03*
D41*
X154746800Y-42926000D03*
%TD*%
D40*
%TO.C,U23*%
X102092600Y-41097200D03*
X102753000Y-41097200D03*
X103388000Y-41097200D03*
X104023000Y-41097200D03*
X104023000Y-44983400D03*
X103388000Y-44983400D03*
X102753000Y-44983400D03*
X102092600Y-44983400D03*
D41*
X103057800Y-43053000D03*
%TD*%
D31*
%TO.C,C79*%
X174127000Y-33553400D03*
X177022600Y-33553400D03*
%TD*%
D26*
%TO.C,R102*%
X128915000Y-37566600D03*
X127340200Y-37566600D03*
%TD*%
D32*
%TO.C,C110*%
X157439200Y-37566600D03*
X157439200Y-35534600D03*
%TD*%
D39*
%TO.C,C138*%
X107502800Y-36042600D03*
X107502800Y-37617400D03*
%TD*%
D30*
%TO.C,C132*%
X123428600Y-42849800D03*
X123428600Y-45745400D03*
%TD*%
D34*
%TO.C,D38*%
X132445600Y-31470600D03*
D35*
X132445600Y-34010600D03*
%TD*%
D38*
%TO.C,C135*%
X119618600Y-41783000D03*
X117586600Y-41783000D03*
%TD*%
D39*
%TO.C,R47*%
X145577400Y-57378600D03*
X145577400Y-55803800D03*
%TD*%
D42*
%TO.C,FID6*%
X80832800Y-33528000D03*
%TD*%
D28*
%TO.C,D33*%
X149184200Y-60579000D03*
X152435400Y-60579000D03*
%TD*%
D31*
%TO.C,C77*%
X174762000Y-55397400D03*
X177657600Y-55397400D03*
%TD*%
D26*
%TO.C,R44*%
X119771000Y-57073800D03*
X121345800Y-57073800D03*
%TD*%
D34*
%TO.C,D22*%
X182940800Y-27457400D03*
D35*
X182940800Y-29997400D03*
%TD*%
D29*
%TO.C,D47*%
X89189400Y-57912000D03*
X89189400Y-56642000D03*
X90764200Y-57277000D03*
%TD*%
D39*
%TO.C,C106*%
X159496600Y-35864800D03*
X159496600Y-37439600D03*
%TD*%
D31*
%TO.C,C112*%
X150124000Y-55626000D03*
X153019600Y-55626000D03*
%TD*%
%TO.C,C108*%
X155585000Y-55626000D03*
X158480600Y-55626000D03*
%TD*%
%TO.C,C133*%
X121574400Y-50520600D03*
X118678800Y-50520600D03*
%TD*%
D40*
%TO.C,U15*%
X179689600Y-38328600D03*
X180350000Y-38328600D03*
X180985000Y-38328600D03*
X181620000Y-38328600D03*
X181620000Y-42214800D03*
X180985000Y-42214800D03*
X180350000Y-42214800D03*
X179689600Y-42214800D03*
D41*
X180654800Y-40284400D03*
%TD*%
D26*
%TO.C,C143*%
X103464200Y-39243000D03*
X101889400Y-39243000D03*
%TD*%
%TO.C,R99*%
X159268000Y-39827200D03*
X157693200Y-39827200D03*
%TD*%
D39*
%TO.C,C71*%
X185099800Y-32385000D03*
X185099800Y-33959800D03*
%TD*%
D29*
%TO.C,D20*%
X193837400Y-57759600D03*
X193837400Y-56489600D03*
X195412200Y-57124600D03*
%TD*%
D26*
%TO.C,C85*%
X168361200Y-38582600D03*
X169936000Y-38582600D03*
%TD*%
%TO.C,C124*%
X132725000Y-45821600D03*
X131150200Y-45821600D03*
%TD*%
D28*
%TO.C,D43*%
X104581800Y-60960000D03*
X107833000Y-60960000D03*
%TD*%
D29*
%TO.C,D15*%
X222412400Y-57658000D03*
X222412400Y-56388000D03*
X223987200Y-57023000D03*
%TD*%
%TO.C,D36*%
X142402400Y-61163200D03*
X142402400Y-59893200D03*
X143977200Y-60528200D03*
%TD*%
%TO.C,D42*%
X116748400Y-60452000D03*
X116748400Y-59182000D03*
X118323200Y-59817000D03*
%TD*%
D31*
%TO.C,C117*%
X147431600Y-50292000D03*
X144536000Y-50292000D03*
%TD*%
D33*
%TO.C,U24*%
X94218600Y-46278800D03*
X93278800Y-46278800D03*
X92339000Y-46278800D03*
X92339000Y-43891200D03*
X94218600Y-43891200D03*
%TD*%
D26*
%TO.C,C76*%
X179232400Y-36220400D03*
X180807200Y-36220400D03*
%TD*%
D30*
%TO.C,C86*%
X166176800Y-47193200D03*
X166176800Y-44297600D03*
%TD*%
D39*
%TO.C,C146*%
X100390800Y-44475400D03*
X100390800Y-42900600D03*
%TD*%
D26*
%TO.C,R97*%
X211465000Y-57023000D03*
X213039800Y-57023000D03*
%TD*%
D25*
%TO.C,R92*%
X230921400Y-35712400D03*
X230921400Y-38608000D03*
%TD*%
D26*
%TO.C,R107*%
X226476400Y-57048400D03*
X228051200Y-57048400D03*
%TD*%
D30*
%TO.C,C148*%
X97977800Y-42875200D03*
X97977800Y-45770800D03*
%TD*%
D26*
%TO.C,R100*%
X154746800Y-37058600D03*
X153172000Y-37058600D03*
%TD*%
D27*
%TO.C,R93*%
X228660800Y-38201600D03*
X225765200Y-38201600D03*
%TD*%
D29*
%TO.C,D48*%
X89189400Y-60706000D03*
X89189400Y-59436000D03*
X90764200Y-60071000D03*
%TD*%
D36*
%TO.C,D40*%
X117205600Y-37439600D03*
D37*
X119745600Y-37439600D03*
%TD*%
D26*
%TO.C,R94*%
X184236200Y-36220400D03*
X182661400Y-36220400D03*
%TD*%
%TO.C,R39*%
X92339000Y-57251600D03*
X93913800Y-57251600D03*
%TD*%
%TO.C,FB14*%
X166227600Y-42240200D03*
X166227600Y-40767000D03*
%TD*%
D39*
%TO.C,C130*%
X125841600Y-44450000D03*
X125841600Y-42875200D03*
%TD*%
D26*
%TO.C,C30*%
X235290200Y-75565000D03*
X233715400Y-75565000D03*
%TD*%
D27*
%TO.C,R82*%
X213624000Y-37998400D03*
X210728400Y-37998400D03*
%TD*%
M02*
