%TF.GenerationSoftware,KiCad,Pcbnew,(5.99.0-10177-gd878cbddbc)*%
%TF.CreationDate,2021-05-05T15:51:09+02:00*%
%TF.ProjectId,TIDA-00555_E2,54494441-2d30-4303-9535-355f45322e6b,rev?*%
%TF.SameCoordinates,Original*%
%TF.FileFunction,Paste,Top*%
%TF.FilePolarity,Positive*%
%FSLAX46Y46*%
G04 Gerber Fmt 4.6, Leading zero omitted, Abs format (unit mm)*
G04 Created by KiCad (PCBNEW (5.99.0-10177-gd878cbddbc)) date 2021-05-05 15:51:09*
%MOMM*%
%LPD*%
G01*
G04 APERTURE LIST*
G04 Aperture macros list*
%AMRoundRect*
0 Rectangle with rounded corners*
0 $1 Rounding radius*
0 $2 $3 $4 $5 $6 $7 $8 $9 X,Y pos of 4 corners*
0 Add a 4 corners polygon primitive as box body*
4,1,4,$2,$3,$4,$5,$6,$7,$8,$9,$2,$3,0*
0 Add four circle primitives for the rounded corners*
1,1,$1+$1,$2,$3*
1,1,$1+$1,$4,$5*
1,1,$1+$1,$6,$7*
1,1,$1+$1,$8,$9*
0 Add four rect primitives between the rounded corners*
20,1,$1+$1,$2,$3,$4,$5,0*
20,1,$1+$1,$4,$5,$6,$7,0*
20,1,$1+$1,$6,$7,$8,$9,0*
20,1,$1+$1,$8,$9,$2,$3,0*%
G04 Aperture macros list end*
%ADD10C,0.203200*%
%ADD11R,0.939800X0.990600*%
%ADD12O,0.599999X2.200001*%
%ADD13RoundRect,0.250000X0.625000X-0.400000X0.625000X0.400000X-0.625000X0.400000X-0.625000X-0.400000X0*%
%ADD14RoundRect,0.250000X0.650000X-0.325000X0.650000X0.325000X-0.650000X0.325000X-0.650000X-0.325000X0*%
%ADD15RoundRect,0.249550X0.650450X-0.325450X0.650450X0.325450X-0.650450X0.325450X-0.650450X-0.325450X0*%
%ADD16RoundRect,0.250000X-0.650000X0.325000X-0.650000X-0.325000X0.650000X-0.325000X0.650000X0.325000X0*%
%ADD17RoundRect,0.249550X-0.650450X0.325450X-0.650450X-0.325450X0.650450X-0.325450X0.650450X0.325450X0*%
%ADD18RoundRect,0.250000X-0.400000X-0.625000X0.400000X-0.625000X0.400000X0.625000X-0.400000X0.625000X0*%
%ADD19R,0.990600X0.939800*%
%ADD20R,1.219200X0.914400*%
%ADD21RoundRect,0.249550X0.325450X0.650450X-0.325450X0.650450X-0.325450X-0.650450X0.325450X-0.650450X0*%
%ADD22RoundRect,0.250000X0.325000X0.650000X-0.325000X0.650000X-0.325000X-0.650000X0.325000X-0.650000X0*%
%ADD23RoundRect,0.250000X-0.325000X-0.650000X0.325000X-0.650000X0.325000X0.650000X-0.325000X0.650000X0*%
%ADD24RoundRect,0.250000X-0.625000X0.400000X-0.625000X-0.400000X0.625000X-0.400000X0.625000X0.400000X0*%
%ADD25R,2.692400X1.295400*%
%ADD26R,0.812800X0.812800*%
%ADD27O,0.584200X2.438400*%
%ADD28RoundRect,0.249600X-0.625400X0.400400X-0.625400X-0.400400X0.625400X-0.400400X0.625400X0.400400X0*%
%ADD29R,1.295400X1.828800*%
%ADD30RoundRect,0.250000X0.400000X0.625000X-0.400000X0.625000X-0.400000X-0.625000X0.400000X-0.625000X0*%
%ADD31R,0.635000X1.270000*%
%ADD32RoundRect,0.249600X0.625400X-0.400400X0.625400X0.400400X-0.625400X0.400400X-0.625400X-0.400400X0*%
%ADD33R,0.635000X1.092200*%
%ADD34C,0.990600*%
%ADD35R,1.270000X1.600200*%
%ADD36R,1.600200X1.270000*%
%ADD37R,2.692400X5.435600*%
%ADD38O,1.450000X0.599999*%
%ADD39R,1.574800X2.997200*%
%ADD40R,2.286000X2.540000*%
%ADD41R,1.193800X2.794000*%
%ADD42R,6.096000X6.096000*%
G04 APERTURE END LIST*
D10*
X27628508Y-229054572D02*
X27695274Y-229118048D01*
X27628508Y-229181524D01*
X27561742Y-229118048D01*
X27628508Y-229054572D01*
X27628508Y-229181524D01*
X28963822Y-229181524D02*
X28296165Y-229181524D01*
X28296165Y-227848532D01*
X30032074Y-229181524D02*
X30032074Y-228483290D01*
X29965308Y-228356338D01*
X29831777Y-228292862D01*
X29564714Y-228292862D01*
X29431182Y-228356338D01*
X30032074Y-229118048D02*
X29898542Y-229181524D01*
X29564714Y-229181524D01*
X29431182Y-229118048D01*
X29364417Y-228991096D01*
X29364417Y-228864145D01*
X29431182Y-228737193D01*
X29564714Y-228673717D01*
X29898542Y-228673717D01*
X30032074Y-228610241D01*
X30566200Y-228292862D02*
X30900028Y-229181524D01*
X31233857Y-228292862D02*
X30900028Y-229181524D01*
X30766497Y-229498903D01*
X30699731Y-229562379D01*
X30566200Y-229625854D01*
X32302108Y-229118048D02*
X32168577Y-229181524D01*
X31901514Y-229181524D01*
X31767982Y-229118048D01*
X31701217Y-228991096D01*
X31701217Y-228483290D01*
X31767982Y-228356338D01*
X31901514Y-228292862D01*
X32168577Y-228292862D01*
X32302108Y-228356338D01*
X32368874Y-228483290D01*
X32368874Y-228610241D01*
X31701217Y-228737193D01*
X32969765Y-229181524D02*
X32969765Y-228292862D01*
X32969765Y-228546766D02*
X33036531Y-228419814D01*
X33103297Y-228356338D01*
X33236828Y-228292862D01*
X33370360Y-228292862D01*
X33503891Y-229308475D02*
X34572142Y-229308475D01*
X34905971Y-229181524D02*
X34905971Y-227848532D01*
X35707160Y-229181524D01*
X35707160Y-227848532D01*
X36975708Y-229181524D02*
X36975708Y-228483290D01*
X36908942Y-228356338D01*
X36775411Y-228292862D01*
X36508348Y-228292862D01*
X36374817Y-228356338D01*
X36975708Y-229118048D02*
X36842177Y-229181524D01*
X36508348Y-229181524D01*
X36374817Y-229118048D01*
X36308051Y-228991096D01*
X36308051Y-228864145D01*
X36374817Y-228737193D01*
X36508348Y-228673717D01*
X36842177Y-228673717D01*
X36975708Y-228610241D01*
X37643365Y-229181524D02*
X37643365Y-228292862D01*
X37643365Y-228419814D02*
X37710131Y-228356338D01*
X37843662Y-228292862D01*
X38043960Y-228292862D01*
X38177491Y-228356338D01*
X38244257Y-228483290D01*
X38244257Y-229181524D01*
X38244257Y-228483290D02*
X38311022Y-228356338D01*
X38444554Y-228292862D01*
X38644851Y-228292862D01*
X38778382Y-228356338D01*
X38845148Y-228483290D01*
X38845148Y-229181524D01*
X40046931Y-229118048D02*
X39913400Y-229181524D01*
X39646337Y-229181524D01*
X39512805Y-229118048D01*
X39446040Y-228991096D01*
X39446040Y-228483290D01*
X39512805Y-228356338D01*
X39646337Y-228292862D01*
X39913400Y-228292862D01*
X40046931Y-228356338D01*
X40113697Y-228483290D01*
X40113697Y-228610241D01*
X39446040Y-228737193D01*
D11*
%TO.C,R4*%
X93786800Y-49199800D03*
X93786800Y-50774600D03*
%TD*%
%TO.C,C43*%
X217459400Y-55727600D03*
X217459400Y-57302400D03*
%TD*%
D12*
%TO.C,U31*%
X153369400Y-86195200D03*
X152099400Y-86195200D03*
X150829400Y-86195200D03*
X149559400Y-86195200D03*
X149559400Y-90995200D03*
X150829400Y-90995200D03*
X152099400Y-90995200D03*
X153369400Y-90995200D03*
%TD*%
D13*
%TO.C,R109*%
X184505600Y-103353200D03*
X184505600Y-100253200D03*
%TD*%
D12*
%TO.C,U29*%
X120980200Y-130517600D03*
X122250200Y-130517600D03*
X123520200Y-130517600D03*
X124790200Y-130517600D03*
X124790200Y-125717600D03*
X123520200Y-125717600D03*
X122250200Y-125717600D03*
X120980200Y-125717600D03*
%TD*%
D14*
%TO.C,C196*%
X199491600Y-89949200D03*
D15*
X199491600Y-86999200D03*
%TD*%
D16*
%TO.C,C24*%
X100634800Y-112672600D03*
D17*
X100634800Y-115622600D03*
%TD*%
D13*
%TO.C,R30*%
X96266000Y-103200800D03*
X96266000Y-100100800D03*
%TD*%
D14*
%TO.C,C210*%
X224739200Y-89460600D03*
D15*
X224739200Y-86510600D03*
%TD*%
D13*
%TO.C,R113*%
X184454800Y-115138800D03*
X184454800Y-112038800D03*
%TD*%
D18*
%TO.C,R50*%
X111581600Y-119380000D03*
X114681600Y-119380000D03*
%TD*%
D19*
%TO.C,FB10*%
X254050800Y-34061400D03*
X252476000Y-34061400D03*
%TD*%
D20*
%TO.C,D13*%
X244246400Y-33782000D03*
X244246400Y-30530800D03*
%TD*%
D14*
%TO.C,C222*%
X260828000Y-129135400D03*
D15*
X260828000Y-126185400D03*
%TD*%
D19*
%TO.C,FB6*%
X155051600Y-35458400D03*
X155051600Y-36931600D03*
%TD*%
D21*
%TO.C,C186*%
X117959400Y-107848400D03*
D22*
X115009400Y-107848400D03*
%TD*%
D14*
%TO.C,C223*%
X264363200Y-129186200D03*
D15*
X264363200Y-126236200D03*
%TD*%
D23*
%TO.C,C22*%
X97839000Y-96672400D03*
X100789000Y-96672400D03*
%TD*%
D11*
%TO.C,C31*%
X98739800Y-55346600D03*
X98739800Y-56921400D03*
%TD*%
D24*
%TO.C,R112*%
X188518800Y-116407600D03*
X188518800Y-119507600D03*
%TD*%
%TO.C,R42*%
X121056400Y-99846800D03*
X121056400Y-102946800D03*
%TD*%
D16*
%TO.C,C215*%
X246786400Y-86360000D03*
D17*
X246786400Y-89310000D03*
%TD*%
D25*
%TO.C,C25*%
X161096800Y-74726800D03*
X161096800Y-71831200D03*
%TD*%
D26*
%TO.C,D2*%
X108772800Y-27990800D03*
X108772800Y-26365200D03*
%TD*%
D13*
%TO.C,R46*%
X124307600Y-121082400D03*
X124307600Y-117982400D03*
%TD*%
D26*
%TO.C,D6*%
X166049800Y-26212800D03*
X166049800Y-24587200D03*
%TD*%
D24*
%TO.C,R48*%
X121920000Y-111988000D03*
X121920000Y-115088000D03*
%TD*%
D16*
%TO.C,C213*%
X213817200Y-87272600D03*
D17*
X213817200Y-90222600D03*
%TD*%
D27*
%TO.C,U5*%
X149235000Y-60426600D03*
X146695000Y-60426600D03*
X144155000Y-60426600D03*
X141615000Y-60426600D03*
X141615000Y-69367400D03*
X144155000Y-69367400D03*
X146695000Y-69367400D03*
X149235000Y-69367400D03*
%TD*%
D28*
%TO.C,R110*%
X177596800Y-100405600D03*
D24*
X177596800Y-103505600D03*
%TD*%
D27*
%TO.C,U1*%
X96834800Y-60426600D03*
X94294800Y-60426600D03*
X91754800Y-60426600D03*
X89214800Y-60426600D03*
X89214800Y-69367400D03*
X91754800Y-69367400D03*
X94294800Y-69367400D03*
X96834800Y-69367400D03*
%TD*%
D16*
%TO.C,C204*%
X179158900Y-127290300D03*
D17*
X179158900Y-130240300D03*
%TD*%
D11*
%TO.C,C56*%
X151038400Y-72415400D03*
X151038400Y-73990200D03*
%TD*%
%TO.C,C62*%
X217383200Y-72669400D03*
X217383200Y-74244200D03*
%TD*%
D14*
%TO.C,C202*%
X197904100Y-130291100D03*
D15*
X197904100Y-127341100D03*
%TD*%
D11*
%TO.C,R76*%
X255803400Y-32385000D03*
X255803400Y-33959800D03*
%TD*%
%TO.C,C38*%
X151292400Y-55727600D03*
X151292400Y-57302400D03*
%TD*%
D29*
%TO.C,R72*%
X209890200Y-41808400D03*
X212785800Y-41808400D03*
%TD*%
D25*
%TO.C,C14*%
X134934800Y-75438000D03*
X134934800Y-72542400D03*
%TD*%
D11*
%TO.C,C5*%
X107121800Y-74193400D03*
X107121800Y-72618600D03*
%TD*%
%TO.C,R26*%
X146593400Y-49860200D03*
X146593400Y-51435000D03*
%TD*%
%TO.C,R57*%
X178140200Y-27584400D03*
X178140200Y-29159200D03*
%TD*%
D30*
%TO.C,R111*%
X177622800Y-96672400D03*
X174522800Y-96672400D03*
%TD*%
D11*
%TO.C,C8*%
X149539800Y-57302400D03*
X149539800Y-55727600D03*
%TD*%
D29*
%TO.C,R84*%
X225511200Y-44627800D03*
X228406800Y-44627800D03*
%TD*%
D18*
%TO.C,R131*%
X241680400Y-96367600D03*
X244780400Y-96367600D03*
%TD*%
D22*
%TO.C,C207*%
X165000200Y-107340400D03*
D21*
X162050200Y-107340400D03*
%TD*%
D24*
%TO.C,R129*%
X252476000Y-99999200D03*
X252476000Y-103099200D03*
%TD*%
D11*
%TO.C,C3*%
X124012800Y-56921400D03*
X124012800Y-55346600D03*
%TD*%
D24*
%TO.C,R36*%
X103225600Y-112496000D03*
D28*
X103225600Y-115596000D03*
%TD*%
D13*
%TO.C,R38*%
X124409200Y-97155600D03*
X124409200Y-94055600D03*
%TD*%
D24*
%TO.C,R132*%
X220421200Y-116915600D03*
X220421200Y-120015600D03*
%TD*%
D16*
%TO.C,C212*%
X210566000Y-87272600D03*
D17*
X210566000Y-90222600D03*
%TD*%
D11*
%TO.C,C64*%
X215706800Y-74244200D03*
X215706800Y-72669400D03*
%TD*%
D14*
%TO.C,C216*%
X260961400Y-90121000D03*
D15*
X260961400Y-87171000D03*
%TD*%
D22*
%TO.C,C227*%
X232359200Y-107289600D03*
D21*
X229409200Y-107289600D03*
%TD*%
D11*
%TO.C,C52*%
X235864400Y-33832800D03*
X235864400Y-32258000D03*
%TD*%
D31*
%TO.C,T2*%
X126806800Y-70104000D03*
X129346800Y-70104000D03*
X131886800Y-70104000D03*
X131886800Y-60985400D03*
X129346800Y-60985400D03*
X126806800Y-60985400D03*
%TD*%
D27*
%TO.C,U11*%
X200847800Y-60782200D03*
X198307800Y-60782200D03*
X195767800Y-60782200D03*
X193227800Y-60782200D03*
X193227800Y-69723000D03*
X195767800Y-69723000D03*
X198307800Y-69723000D03*
X200847800Y-69723000D03*
%TD*%
D32*
%TO.C,R122*%
X166116000Y-114884800D03*
D13*
X166116000Y-111784800D03*
%TD*%
D16*
%TO.C,C164*%
X248208800Y-111809000D03*
D17*
X248208800Y-114759000D03*
%TD*%
D16*
%TO.C,C48*%
X163169600Y-111910600D03*
D17*
X163169600Y-114860600D03*
%TD*%
D25*
%TO.C,C50*%
X186547600Y-74472800D03*
X186547600Y-71577200D03*
%TD*%
D14*
%TO.C,C35*%
X117246400Y-103075000D03*
D15*
X117246400Y-100125000D03*
%TD*%
D22*
%TO.C,C29*%
X101297000Y-119227600D03*
X98347000Y-119227600D03*
%TD*%
D11*
%TO.C,C19*%
X230819800Y-57302400D03*
X230819800Y-55727600D03*
%TD*%
D14*
%TO.C,C191*%
X157001600Y-89663800D03*
D15*
X157001600Y-86713800D03*
%TD*%
D27*
%TO.C,U12*%
X215706800Y-60782200D03*
X213166800Y-60782200D03*
X210626800Y-60782200D03*
X208086800Y-60782200D03*
X208086800Y-69723000D03*
X210626800Y-69723000D03*
X213166800Y-69723000D03*
X215706800Y-69723000D03*
%TD*%
D19*
%TO.C,C66*%
X266827000Y-33807400D03*
X268401800Y-33807400D03*
%TD*%
D31*
%TO.C,T1*%
X101914800Y-70231000D03*
X104454800Y-70231000D03*
X106994800Y-70231000D03*
X106994800Y-61112400D03*
X104454800Y-61112400D03*
X101914800Y-61112400D03*
%TD*%
D19*
%TO.C,FB5*%
X153019600Y-35458400D03*
X153019600Y-36931600D03*
%TD*%
D11*
%TO.C,FB7*%
X241477800Y-33782000D03*
X240004600Y-33782000D03*
%TD*%
D12*
%TO.C,U36*%
X220903800Y-86042800D03*
X219633800Y-86042800D03*
X218363800Y-86042800D03*
X217093800Y-86042800D03*
X217093800Y-90842800D03*
X218363800Y-90842800D03*
X219633800Y-90842800D03*
X220903800Y-90842800D03*
%TD*%
D23*
%TO.C,C41*%
X180592200Y-119176800D03*
X183542200Y-119176800D03*
%TD*%
D14*
%TO.C,C158*%
X229971600Y-103125800D03*
D15*
X229971600Y-100175800D03*
%TD*%
D33*
%TO.C,U4*%
X130286600Y-72085200D03*
X129346800Y-72085200D03*
X128407000Y-72085200D03*
X128407000Y-74472800D03*
X130286600Y-74472800D03*
%TD*%
D30*
%TO.C,R115*%
X178486400Y-119176800D03*
X175386400Y-119176800D03*
%TD*%
D33*
%TO.C,U10*%
X181391400Y-72339200D03*
X180451600Y-72339200D03*
X179511800Y-72339200D03*
X179511800Y-74726800D03*
X181391400Y-74726800D03*
%TD*%
D14*
%TO.C,C183*%
X130911600Y-129694200D03*
D15*
X130911600Y-126744200D03*
%TD*%
D16*
%TO.C,C219*%
X213055200Y-126303500D03*
D17*
X213055200Y-129253500D03*
%TD*%
D34*
%TO.C,FID1*%
X80832800Y-33528000D03*
%TD*%
D11*
%TO.C,R12*%
X118932800Y-73634600D03*
X118932800Y-75209400D03*
%TD*%
D34*
%TO.C,FID2*%
X82423000Y-134874000D03*
%TD*%
D16*
%TO.C,C194*%
X181864000Y-86946600D03*
D17*
X181864000Y-89896600D03*
%TD*%
D11*
%TO.C,R3*%
X92135800Y-74015600D03*
X92135800Y-75590400D03*
%TD*%
D33*
%TO.C,U2*%
X105394600Y-72212200D03*
X104454800Y-72212200D03*
X103515000Y-72212200D03*
X103515000Y-74599800D03*
X105394600Y-74599800D03*
%TD*%
D12*
%TO.C,U33*%
X192709800Y-86398400D03*
X191439800Y-86398400D03*
X190169800Y-86398400D03*
X188899800Y-86398400D03*
X188899800Y-91198400D03*
X190169800Y-91198400D03*
X191439800Y-91198400D03*
X192709800Y-91198400D03*
%TD*%
D22*
%TO.C,C37*%
X119585000Y-119380000D03*
X116635000Y-119380000D03*
%TD*%
D11*
%TO.C,C70*%
X230845200Y-74218800D03*
X230845200Y-72644000D03*
%TD*%
D12*
%TO.C,U28*%
X124354200Y-86246000D03*
X123084200Y-86246000D03*
X121814200Y-86246000D03*
X120544200Y-86246000D03*
X120544200Y-91046000D03*
X121814200Y-91046000D03*
X123084200Y-91046000D03*
X124354200Y-91046000D03*
%TD*%
D14*
%TO.C,C197*%
X196545200Y-89949200D03*
D15*
X196545200Y-86999200D03*
%TD*%
D35*
%TO.C,C2*%
X93913800Y-55575200D03*
X91881800Y-55575200D03*
%TD*%
D11*
%TO.C,R86*%
X225917600Y-48615600D03*
X225917600Y-50190400D03*
%TD*%
D26*
%TO.C,D11*%
X178191000Y-25501600D03*
X178191000Y-23876000D03*
%TD*%
D13*
%TO.C,R118*%
X166116000Y-103353200D03*
D32*
X166116000Y-100253200D03*
%TD*%
D35*
%TO.C,C61*%
X213039800Y-54076600D03*
X211007800Y-54076600D03*
%TD*%
D12*
%TO.C,U37*%
X257024400Y-85941200D03*
X255754400Y-85941200D03*
X254484400Y-85941200D03*
X253214400Y-85941200D03*
X253214400Y-90741200D03*
X254484400Y-90741200D03*
X255754400Y-90741200D03*
X257024400Y-90741200D03*
%TD*%
D11*
%TO.C,C54*%
X125460600Y-72415400D03*
X125460600Y-73990200D03*
%TD*%
D13*
%TO.C,R125*%
X226263200Y-103353200D03*
X226263200Y-100253200D03*
%TD*%
D35*
%TO.C,C9*%
X120863200Y-55880000D03*
X118831200Y-55880000D03*
%TD*%
D11*
%TO.C,R7*%
X112455800Y-35026600D03*
X112455800Y-36601400D03*
%TD*%
D25*
%TO.C,C6*%
X110550800Y-74345800D03*
X110550800Y-71450200D03*
%TD*%
D16*
%TO.C,C225*%
X249936000Y-126287000D03*
D17*
X249936000Y-129237000D03*
%TD*%
D21*
%TO.C,C206*%
X181611800Y-107442000D03*
D22*
X178661800Y-107442000D03*
%TD*%
D28*
%TO.C,R126*%
X232968800Y-100050000D03*
D24*
X232968800Y-103150000D03*
%TD*%
D14*
%TO.C,C200*%
X160354400Y-130177400D03*
D15*
X160354400Y-127227400D03*
%TD*%
D18*
%TO.C,R139*%
X241223200Y-119126000D03*
X244323200Y-119126000D03*
%TD*%
D16*
%TO.C,C172*%
X83180800Y-86358200D03*
D17*
X83180800Y-89308200D03*
%TD*%
D11*
%TO.C,C11*%
X200847800Y-57302400D03*
X200847800Y-55727600D03*
%TD*%
%TO.C,R5*%
X94040800Y-74015600D03*
X94040800Y-75590400D03*
%TD*%
D12*
%TO.C,U38*%
X220497400Y-129958800D03*
X221767400Y-129958800D03*
X223037400Y-129958800D03*
X224307400Y-129958800D03*
X224307400Y-125158800D03*
X223037400Y-125158800D03*
X221767400Y-125158800D03*
X220497400Y-125158800D03*
%TD*%
D13*
%TO.C,R116*%
X155346400Y-98578000D03*
X155346400Y-95478000D03*
%TD*%
D11*
%TO.C,C45*%
X98587400Y-72110600D03*
X98587400Y-73685400D03*
%TD*%
D14*
%TO.C,C220*%
X229463600Y-129440200D03*
D15*
X229463600Y-126490200D03*
%TD*%
D16*
%TO.C,C156*%
X180086000Y-112063000D03*
D17*
X180086000Y-115013000D03*
%TD*%
D12*
%TO.C,U26*%
X94970600Y-86906400D03*
X93700600Y-86906400D03*
X92430600Y-86906400D03*
X91160600Y-86906400D03*
X91160600Y-91706400D03*
X92430600Y-91706400D03*
X93700600Y-91706400D03*
X94970600Y-91706400D03*
%TD*%
D14*
%TO.C,C170*%
X98399600Y-89460600D03*
D15*
X98399600Y-86510600D03*
%TD*%
D24*
%TO.C,R114*%
X177088800Y-111784800D03*
D28*
X177088800Y-114884800D03*
%TD*%
D11*
%TO.C,R77*%
X212912800Y-48463200D03*
X212912800Y-50038000D03*
%TD*%
D19*
%TO.C,C65*%
X266827000Y-31902400D03*
X268401800Y-31902400D03*
%TD*%
D11*
%TO.C,R55*%
X172018800Y-28676600D03*
X172018800Y-30251400D03*
%TD*%
D14*
%TO.C,C40*%
X162864800Y-103278200D03*
D15*
X162864800Y-100328200D03*
%TD*%
D11*
%TO.C,C13*%
X131886800Y-74066400D03*
X131886800Y-72491600D03*
%TD*%
D16*
%TO.C,C214*%
X249783600Y-86409000D03*
D17*
X249783600Y-89359000D03*
%TD*%
D16*
%TO.C,C224*%
X246634000Y-126287000D03*
D17*
X246634000Y-129237000D03*
%TD*%
D36*
%TO.C,R59*%
X192211800Y-42849800D03*
X192211800Y-44881800D03*
%TD*%
D26*
%TO.C,D1*%
X81671000Y-38608000D03*
X83296600Y-38608000D03*
%TD*%
D37*
%TO.C,R22*%
X149717600Y-27940000D03*
X157998000Y-27940000D03*
%TD*%
D12*
%TO.C,U32*%
X151968200Y-130822400D03*
X153238200Y-130822400D03*
X154508200Y-130822400D03*
X155778200Y-130822400D03*
X155778200Y-126022400D03*
X154508200Y-126022400D03*
X153238200Y-126022400D03*
X151968200Y-126022400D03*
%TD*%
D11*
%TO.C,C1*%
X96961800Y-56921400D03*
X96961800Y-55346600D03*
%TD*%
%TO.C,R65*%
X197672800Y-49606200D03*
X197672800Y-51181000D03*
%TD*%
D12*
%TO.C,U39*%
X253284200Y-130009600D03*
X254554200Y-130009600D03*
X255824200Y-130009600D03*
X257094200Y-130009600D03*
X257094200Y-125209600D03*
X255824200Y-125209600D03*
X254554200Y-125209600D03*
X253284200Y-125209600D03*
%TD*%
D14*
%TO.C,C211*%
X228295200Y-89409800D03*
D15*
X228295200Y-86459800D03*
%TD*%
D19*
%TO.C,FB4*%
X125333600Y-33934400D03*
X125333600Y-35407600D03*
%TD*%
D14*
%TO.C,C171*%
X102108000Y-89359000D03*
D15*
X102108000Y-86409000D03*
%TD*%
D19*
%TO.C,FB2*%
X96885600Y-33680400D03*
X96885600Y-35153600D03*
%TD*%
D11*
%TO.C,R23*%
X144459800Y-73507600D03*
X144459800Y-75082400D03*
%TD*%
D22*
%TO.C,C155*%
X162917400Y-96723200D03*
X159967400Y-96723200D03*
%TD*%
D26*
%TO.C,D4*%
X136585800Y-28625800D03*
X136585800Y-27000200D03*
%TD*%
D11*
%TO.C,R15*%
X120964800Y-73634600D03*
X120964800Y-75209400D03*
%TD*%
D16*
%TO.C,C184*%
X114350800Y-127404600D03*
D17*
X114350800Y-130354600D03*
%TD*%
D14*
%TO.C,C180*%
X100025200Y-130151400D03*
D15*
X100025200Y-127201400D03*
%TD*%
D18*
%TO.C,R123*%
X165531200Y-119024400D03*
X168631200Y-119024400D03*
%TD*%
D11*
%TO.C,R74*%
X211007800Y-48463200D03*
X211007800Y-50038000D03*
%TD*%
D16*
%TO.C,C199*%
X143590400Y-127278200D03*
D17*
X143590400Y-130228200D03*
%TD*%
D35*
%TO.C,C55*%
X197799800Y-55092600D03*
X195767800Y-55092600D03*
%TD*%
D37*
%TO.C,R9*%
X120253600Y-27940000D03*
X128534000Y-27940000D03*
%TD*%
D16*
%TO.C,C205*%
X182867300Y-127290300D03*
D17*
X182867300Y-130240300D03*
%TD*%
D29*
%TO.C,R85*%
X225511200Y-41402000D03*
X228406800Y-41402000D03*
%TD*%
D14*
%TO.C,C177*%
X131542400Y-89257400D03*
D15*
X131542400Y-86307400D03*
%TD*%
D36*
%TO.C,R83*%
X222615600Y-41478200D03*
X222615600Y-43510200D03*
%TD*%
D24*
%TO.C,R134*%
X232968800Y-111809600D03*
D28*
X232968800Y-114909600D03*
%TD*%
D26*
%TO.C,D3*%
X112455800Y-26289000D03*
X112455800Y-27914600D03*
%TD*%
%TO.C,D9*%
X172095000Y-23901400D03*
X172095000Y-25527000D03*
%TD*%
D11*
%TO.C,C53*%
X237515400Y-33832800D03*
X237515400Y-32258000D03*
%TD*%
%TO.C,C58*%
X246659400Y-33832800D03*
X246659400Y-32258000D03*
%TD*%
D22*
%TO.C,C163*%
X230227400Y-119024400D03*
X227277400Y-119024400D03*
%TD*%
D11*
%TO.C,C67*%
X232521600Y-72644000D03*
X232521600Y-74218800D03*
%TD*%
%TO.C,R63*%
X195894800Y-49606200D03*
X195894800Y-51181000D03*
%TD*%
D24*
%TO.C,R124*%
X221691200Y-95478000D03*
X221691200Y-98578000D03*
%TD*%
D11*
%TO.C,R64*%
X196402800Y-73990200D03*
X196402800Y-75565000D03*
%TD*%
D13*
%TO.C,R120*%
X155702000Y-119558400D03*
X155702000Y-116458400D03*
%TD*%
D21*
%TO.C,C226*%
X249023400Y-107340400D03*
D22*
X246073400Y-107340400D03*
%TD*%
D11*
%TO.C,R75*%
X211134800Y-73482200D03*
X211134800Y-75057000D03*
%TD*%
D24*
%TO.C,R137*%
X253238000Y-112038800D03*
X253238000Y-115138800D03*
%TD*%
D19*
%TO.C,FB3*%
X123555600Y-33934400D03*
X123555600Y-35407600D03*
%TD*%
D16*
%TO.C,C174*%
X116476000Y-86256600D03*
D17*
X116476000Y-89206600D03*
%TD*%
D30*
%TO.C,R135*%
X235484000Y-119024400D03*
X232384000Y-119024400D03*
%TD*%
D16*
%TO.C,C185*%
X117043200Y-127455400D03*
D17*
X117043200Y-130405400D03*
%TD*%
D14*
%TO.C,C182*%
X128371600Y-129643400D03*
D15*
X128371600Y-126693400D03*
%TD*%
D30*
%TO.C,R32*%
X105893200Y-96672400D03*
X102793200Y-96672400D03*
%TD*%
D24*
%TO.C,R117*%
X158597600Y-100050000D03*
X158597600Y-103150000D03*
%TD*%
D29*
%TO.C,R61*%
X194701000Y-46786800D03*
X197596600Y-46786800D03*
%TD*%
D11*
%TO.C,C12*%
X123733400Y-73990200D03*
X123733400Y-72415400D03*
%TD*%
D14*
%TO.C,C21*%
X100685600Y-103278200D03*
D15*
X100685600Y-100328200D03*
%TD*%
D37*
%TO.C,R1*%
X92085000Y-27813000D03*
X100365400Y-27813000D03*
%TD*%
D13*
%TO.C,R43*%
X114604800Y-103302400D03*
D32*
X114604800Y-100202400D03*
%TD*%
D12*
%TO.C,U34*%
X186969400Y-131076400D03*
X188239400Y-131076400D03*
X189509400Y-131076400D03*
X190779400Y-131076400D03*
X190779400Y-126276400D03*
X189509400Y-126276400D03*
X188239400Y-126276400D03*
X186969400Y-126276400D03*
%TD*%
D38*
%TO.C,U25*%
X105732999Y-103936800D03*
X105732999Y-105206800D03*
X105732999Y-106476800D03*
X105732999Y-107746800D03*
X105732999Y-109016800D03*
X105732999Y-110286800D03*
X105732999Y-111556800D03*
X111182998Y-111556800D03*
X111182998Y-110286800D03*
X111182998Y-109016800D03*
X111182998Y-107746800D03*
X111182998Y-106476800D03*
X111182998Y-105206800D03*
X111182998Y-103936800D03*
%TD*%
D11*
%TO.C,R66*%
X198053800Y-73990200D03*
X198053800Y-75565000D03*
%TD*%
D13*
%TO.C,R35*%
X96418400Y-115443600D03*
X96418400Y-112343600D03*
%TD*%
D14*
%TO.C,C201*%
X163677600Y-130181000D03*
D15*
X163677600Y-127231000D03*
%TD*%
D16*
%TO.C,C192*%
X145876400Y-86917000D03*
D17*
X145876400Y-89867000D03*
%TD*%
D16*
%TO.C,C173*%
X87092400Y-86459800D03*
D17*
X87092400Y-89409800D03*
%TD*%
D39*
%TO.C,C28*%
X166024400Y-73329800D03*
X166024400Y-77698600D03*
%TD*%
D11*
%TO.C,R25*%
X146237800Y-73507600D03*
X146237800Y-75082400D03*
%TD*%
D29*
%TO.C,R60*%
X194701000Y-43103800D03*
X197596600Y-43103800D03*
%TD*%
D12*
%TO.C,U27*%
X91617800Y-129501600D03*
X92887800Y-129501600D03*
X94157800Y-129501600D03*
X95427800Y-129501600D03*
X95427800Y-124701600D03*
X94157800Y-124701600D03*
X92887800Y-124701600D03*
X91617800Y-124701600D03*
%TD*%
D11*
%TO.C,C49*%
X183118600Y-74320400D03*
X183118600Y-72745600D03*
%TD*%
%TO.C,R24*%
X144561400Y-49860200D03*
X144561400Y-51435000D03*
%TD*%
D35*
%TO.C,C18*%
X146466400Y-55727600D03*
X144434400Y-55727600D03*
%TD*%
D32*
%TO.C,R49*%
X114350800Y-115088000D03*
D13*
X114350800Y-111988000D03*
%TD*%
%TO.C,R130*%
X244449600Y-103150000D03*
D32*
X244449600Y-100050000D03*
%TD*%
D38*
%TO.C,U30*%
X168877399Y-103581200D03*
X168877399Y-104851200D03*
X168877399Y-106121200D03*
X168877399Y-107391200D03*
X168877399Y-108661200D03*
X168877399Y-109931200D03*
X168877399Y-111201200D03*
X174327398Y-111201200D03*
X174327398Y-109931200D03*
X174327398Y-108661200D03*
X174327398Y-107391200D03*
X174327398Y-106121200D03*
X174327398Y-104851200D03*
X174327398Y-103581200D03*
%TD*%
D40*
%TO.C,C59*%
X249580400Y-34010600D03*
X249580400Y-29286200D03*
%TD*%
D35*
%TO.C,C68*%
X227949600Y-53975000D03*
X225917600Y-53975000D03*
%TD*%
D19*
%TO.C,FB1*%
X95107600Y-33680400D03*
X95107600Y-35153600D03*
%TD*%
D11*
%TO.C,C42*%
X202575000Y-55727600D03*
X202575000Y-57302400D03*
%TD*%
D23*
%TO.C,C160*%
X246937000Y-96418400D03*
X249887000Y-96418400D03*
%TD*%
D14*
%TO.C,C161*%
X247142000Y-103024200D03*
D15*
X247142000Y-100074200D03*
%TD*%
D11*
%TO.C,R33*%
X166049800Y-28168600D03*
X166049800Y-29743400D03*
%TD*%
D17*
%TO.C,C36*%
X117043200Y-112063000D03*
X117043200Y-115013000D03*
%TD*%
D13*
%TO.C,R136*%
X257606800Y-120269600D03*
X257606800Y-117169600D03*
%TD*%
D14*
%TO.C,C190*%
X160303600Y-89663800D03*
D15*
X160303600Y-86713800D03*
%TD*%
D14*
%TO.C,C217*%
X264160000Y-90171800D03*
D15*
X264160000Y-87221800D03*
%TD*%
D14*
%TO.C,C221*%
X232156000Y-129440200D03*
D15*
X232156000Y-126490200D03*
%TD*%
D11*
%TO.C,C17*%
X215706800Y-57302400D03*
X215706800Y-55727600D03*
%TD*%
D23*
%TO.C,C34*%
X116127000Y-96621600D03*
X119077000Y-96621600D03*
%TD*%
D16*
%TO.C,C162*%
X230022400Y-111910600D03*
D17*
X230022400Y-114860600D03*
%TD*%
D26*
%TO.C,D14*%
X255803400Y-29057600D03*
X255803400Y-30683200D03*
%TD*%
D16*
%TO.C,C175*%
X112920000Y-86256600D03*
D17*
X112920000Y-89206600D03*
%TD*%
D11*
%TO.C,C23*%
X158201200Y-74498200D03*
X158201200Y-72923400D03*
%TD*%
D24*
%TO.C,R29*%
X92456000Y-94766800D03*
X92456000Y-97866800D03*
%TD*%
D30*
%TO.C,R37*%
X106604400Y-119278400D03*
X103504400Y-119278400D03*
%TD*%
D24*
%TO.C,R121*%
X159461200Y-111734000D03*
X159461200Y-114834000D03*
%TD*%
D18*
%TO.C,R45*%
X111073600Y-96621600D03*
X114173600Y-96621600D03*
%TD*%
D24*
%TO.C,R34*%
X94132400Y-118490400D03*
X94132400Y-121590400D03*
%TD*%
D11*
%TO.C,R14*%
X120736200Y-49504600D03*
X120736200Y-51079400D03*
%TD*%
%TO.C,C33*%
X125790800Y-55346600D03*
X125790800Y-56921400D03*
%TD*%
D22*
%TO.C,C39*%
X183085000Y-96672400D03*
X180135000Y-96672400D03*
%TD*%
D23*
%TO.C,C157*%
X160424600Y-119024400D03*
X163374600Y-119024400D03*
%TD*%
D22*
%TO.C,C165*%
X249734600Y-119075200D03*
X246784600Y-119075200D03*
%TD*%
D11*
%TO.C,C57*%
X200847800Y-74041000D03*
X200847800Y-72466200D03*
%TD*%
D36*
%TO.C,R71*%
X207274000Y-41833800D03*
X207274000Y-43865800D03*
%TD*%
D30*
%TO.C,R127*%
X236195200Y-96316800D03*
X233095200Y-96316800D03*
%TD*%
D27*
%TO.C,U14*%
X230819800Y-60782200D03*
X228279800Y-60782200D03*
X225739800Y-60782200D03*
X223199800Y-60782200D03*
X223199800Y-69723000D03*
X225739800Y-69723000D03*
X228279800Y-69723000D03*
X230819800Y-69723000D03*
%TD*%
D39*
%TO.C,C16*%
X139760800Y-73761600D03*
X139760800Y-78130400D03*
%TD*%
D14*
%TO.C,C203*%
X194631700Y-130291100D03*
D15*
X194631700Y-127341100D03*
%TD*%
D11*
%TO.C,C20*%
X149311200Y-73990200D03*
X149311200Y-72415400D03*
%TD*%
%TO.C,C44*%
X232572400Y-55727600D03*
X232572400Y-57302400D03*
%TD*%
D32*
%TO.C,R138*%
X245364000Y-115037200D03*
D13*
X245364000Y-111937200D03*
%TD*%
D19*
%TO.C,R19*%
X134249000Y-33401000D03*
X132674200Y-33401000D03*
%TD*%
D26*
%TO.C,D5*%
X141665800Y-26492200D03*
X141665800Y-28117800D03*
%TD*%
D14*
%TO.C,C154*%
X180746400Y-103430600D03*
D15*
X180746400Y-100480600D03*
%TD*%
D38*
%TO.C,U35*%
X236002401Y-103479600D03*
X236002401Y-104749600D03*
X236002401Y-106019600D03*
X236002401Y-107289600D03*
X236002401Y-108559600D03*
X236002401Y-109829600D03*
X236002401Y-111099600D03*
X241452400Y-111099600D03*
X241452400Y-109829600D03*
X241452400Y-108559600D03*
X241452400Y-107289600D03*
X241452400Y-106019600D03*
X241452400Y-104749600D03*
X241452400Y-103479600D03*
%TD*%
D24*
%TO.C,R108*%
X187858400Y-94817600D03*
X187858400Y-97917600D03*
%TD*%
D29*
%TO.C,R73*%
X209890200Y-45491400D03*
X212785800Y-45491400D03*
%TD*%
D11*
%TO.C,R88*%
X227771800Y-73482200D03*
X227771800Y-75057000D03*
%TD*%
%TO.C,R2*%
X92008800Y-49199800D03*
X92008800Y-50774600D03*
%TD*%
%TO.C,R78*%
X212912800Y-73482200D03*
X212912800Y-75057000D03*
%TD*%
D41*
%TO.C,U13*%
X264287000Y-34061400D03*
D42*
X262001000Y-41325800D03*
D41*
X259715000Y-34061400D03*
%TD*%
D27*
%TO.C,U3*%
X123758800Y-60426600D03*
X121218800Y-60426600D03*
X118678800Y-60426600D03*
X116138800Y-60426600D03*
X116138800Y-69367400D03*
X118678800Y-69367400D03*
X121218800Y-69367400D03*
X123758800Y-69367400D03*
%TD*%
D16*
%TO.C,C179*%
X83870800Y-125575800D03*
D17*
X83870800Y-128525800D03*
%TD*%
D11*
%TO.C,C4*%
X96834800Y-73685400D03*
X96834800Y-72110600D03*
%TD*%
D14*
%TO.C,C181*%
X103276400Y-130202200D03*
D15*
X103276400Y-127252200D03*
%TD*%
D28*
%TO.C,R31*%
X103225600Y-100304000D03*
D24*
X103225600Y-103404000D03*
%TD*%
D33*
%TO.C,U6*%
X156321600Y-72288400D03*
X155381800Y-72288400D03*
X154442000Y-72288400D03*
X154442000Y-74676000D03*
X156321600Y-74676000D03*
%TD*%
D16*
%TO.C,C198*%
X147400400Y-127278200D03*
D17*
X147400400Y-130228200D03*
%TD*%
D11*
%TO.C,R11*%
X118958200Y-49504600D03*
X118958200Y-51079400D03*
%TD*%
%TO.C,R21*%
X141665800Y-32232600D03*
X141665800Y-33807400D03*
%TD*%
D19*
%TO.C,R6*%
X107909200Y-33401000D03*
X106334400Y-33401000D03*
%TD*%
D13*
%TO.C,R133*%
X226263200Y-115189600D03*
X226263200Y-112089600D03*
%TD*%
D23*
%TO.C,C159*%
X228141000Y-96418400D03*
X231091000Y-96418400D03*
%TD*%
D16*
%TO.C,C178*%
X87985600Y-125626600D03*
D17*
X87985600Y-128576600D03*
%TD*%
D11*
%TO.C,R89*%
X227822600Y-48615600D03*
X227822600Y-50190400D03*
%TD*%
%TO.C,C63*%
X257454400Y-33959800D03*
X257454400Y-32385000D03*
%TD*%
D16*
%TO.C,C195*%
X185216800Y-86997400D03*
D17*
X185216800Y-89947400D03*
%TD*%
D11*
%TO.C,R87*%
X226120800Y-73482200D03*
X226120800Y-75057000D03*
%TD*%
D16*
%TO.C,C193*%
X142168000Y-86864400D03*
D17*
X142168000Y-89814400D03*
%TD*%
D31*
%TO.C,T3*%
X152740200Y-69799200D03*
X155280200Y-69799200D03*
X157820200Y-69799200D03*
X157820200Y-60680600D03*
X155280200Y-60680600D03*
X152740200Y-60680600D03*
%TD*%
D14*
%TO.C,C176*%
X128088000Y-89155800D03*
D15*
X128088000Y-86205800D03*
%TD*%
D13*
%TO.C,R128*%
X257200400Y-98832000D03*
X257200400Y-95732000D03*
%TD*%
D31*
%TO.C,T5*%
X178165600Y-70358000D03*
X180705600Y-70358000D03*
X183245600Y-70358000D03*
X183245600Y-61239400D03*
X180705600Y-61239400D03*
X178165600Y-61239400D03*
%TD*%
D11*
%TO.C,C60*%
X202575000Y-72466200D03*
X202575000Y-74041000D03*
%TD*%
D22*
%TO.C,C187*%
X102109800Y-107848400D03*
D21*
X99159800Y-107848400D03*
%TD*%
D18*
%TO.C,R119*%
X165582000Y-96520000D03*
X168682000Y-96520000D03*
%TD*%
D16*
%TO.C,C218*%
X216408000Y-126354300D03*
D17*
X216408000Y-129304300D03*
%TD*%
M02*
